<?xml version="1.0" encoding="utf-8"?>
<!-- Generator: Adobe Illustrator 13.0.2, SVG Export Plug-In . SVG Version: 6.00 Build 14948)  -->
<!DOCTYPE svg PUBLIC "-//W3C//DTD SVG 1.1//EN" "http://www.w3.org/Graphics/SVG/1.1/DTD/svg11.dtd">
<svg version="1.1" id="Layer_1" xmlns="http://www.w3.org/2000/svg" xmlns:xlink="http://www.w3.org/1999/xlink" x="0px" y="0px"
	 width="149.225px" height="310.547px" viewBox="0 0 149.225 310.547" enable-background="new 0 0 149.225 310.547"
	 xml:space="preserve">
<g>
	<path d="M66.548,35.979c1.701-0.368,1.887,0.78,2,2c-0.851-0.184-0.943,0.389-1,1C66.375,38.817,66.705,37.156,66.548,35.979z"/>
	<path d="M76.548,57.979c0.381-1.904,1.271,0.638,1,2C77.167,61.882,76.275,59.34,76.548,57.979z"/>
	<path d="M78.548,59.979c2.915-1.47,2.915,4.47,0,3C78.548,61.979,78.548,60.979,78.548,59.979z"/>
	<path d="M102.548,77.979c0.381-1.904,1.271,0.638,1,2C103.167,81.882,102.275,79.34,102.548,77.979z"/>
	<path d="M78.548,96.979c0.65-2.82,1.16,2.303,1,3C79.083,101.987,77.668,100.786,78.548,96.979z"/>
	<path d="M70.548,110.979c0.973,0.027,0.776,1.224,1,2c0.649,1.017,2.299,1.034,2,3C70.038,115.537,69.308,113.871,70.548,110.979z"
		/>
	<path d="M92.548,113.979c3.613-0.947,1.395,3.938,2,6C90.933,120.926,93.152,116.04,92.548,113.979z"/>
	<path d="M134.548,119.979c3.603-0.958,1.772,4.316,1,5c0.438,1.981-0.396,9.208-1,4
		C134.548,125.979,134.548,122.979,134.548,119.979z"/>
	<path d="M72.548,140.979c2.093-1.012,1.375,1.62,2,2c1.294,0.787,3.409,0.072,5,1c-1.817,2.073-9.113,1.17-9-2
		C71.71,142.142,72.327,141.758,72.548,140.979z"/>
	<path d="M89.548,143.979c-0.015,1.01-1.24,0.729-2,1c-2.478,0.885-6.862,2.988-6,0C84.767,145.199,85.779,143.21,89.548,143.979z"
		/>
	<path d="M88.548,147.979c0.016-1.527,7.41-2.193,6,1C92.192,149.001,91.604,147.256,88.548,147.979z"/>
	<path d="M21.548,148.979c3.177,0.839-1.774,1.318-3,1c-2.822,0.102-4.248,3.768-7,1c-0.192-1.859,3.166-0.167,4-1
		c0.067-0.068-0.072-0.987,0-1C17.382,148.659,19.417,149.212,21.548,148.979z"/>
	<path d="M95.548,150.979c1.645-2.851,5.425,0.479,7,1C101.154,154.579,97.372,151.249,95.548,150.979z"/>
	<path d="M53.548,153.979c1.705-3.414,2.772,1.227,2,2C55.129,156.397,54.358,153.479,53.548,153.979z"/>
	<path d="M111.548,160.979c0.419-2.227,5.307-0.783,6,0C116.538,163.793,113.3,160.704,111.548,160.979z"/>
	<path d="M120.548,164.979c1.614-0.281,1.721,0.943,3,1C123.945,167.918,118.992,167.44,120.548,164.979z"/>
	<path d="M126.548,171.979c1.614-0.281,1.721,0.943,3,1C129.945,174.918,124.992,174.44,126.548,171.979z"/>
	<path d="M133.548,176.979c1.085,0.247,0.678,1.988,2,2C135.117,181.747,132.402,179.03,133.548,176.979z"/>
	<path d="M82.548,183.979c0.406-2.49,3.876-0.061,3,2C84.234,185.625,83.975,184.217,82.548,183.979z"/>
	<path d="M108.548,182.979c1.342,0.656,1.861,2.137,2,4C108.788,186.739,108.267,185.258,108.548,182.979z"/>
	<path d="M74.548,186.979c2.206-3.413,2.265,3.643,3,5c2.814-1.012-0.276-4.248,0-6c1.76,0.24,2.278,1.721,2,4
		c-0.061,1.24,1.532,1.331,2,2c0.251,0.359-0.326,1.732,0,2c1.165,0.954,0.281,1.482,1,3c0.181,0.38,1.897,0.71,2,1
		c0.307,0.871-0.363,2.15,0,3c0.174,0.406,0.84,0.039,1,1c-0.049-0.291-1.124,0.385-1,1c0.023,0.125,0.938,0.201,1,1
		c0.37,4.753,0.965,12.173,0,18c-0.314,1.898,0.289,3.21-2,3c-0.284-4.919,1.085-9.764,0-14c-0.235-0.92-1.058-0.818-2-1
		c0.534-3.869-1.785-4.882-1-9c-0.586-0.411-1.261,1.77-1,2c-2.379-2.104-3.282-10.492-4-15
		C75.731,187.127,75.158,187.036,74.548,186.979z"/>
	<path d="M118.548,194.979C123.131,195.644,117.745,201.034,118.548,194.979L118.548,194.979z"/>
	<path d="M88.548,215.979c4.206,2.792,2.781,11.217,3,18c-3.156-0.075-1.09-2.982-2-6c-0.33-1.087-0.697-4.078,0-7
		C89.958,218.568,87.721,218.805,88.548,215.979z"/>
	<path d="M87.548,240.979c3.632,1.639-1.224,2.45-2,3c-1.614,1.139-1.83,3.213-4,2C81.455,242.219,86.558,243.657,87.548,240.979z"
		/>
	<path d="M103.548,263.979c-0.498,4.168-4.521,4.812-8,6c-2.066,1.529-5.86,4.639-9,2c0.906-3.54,3.674-1.15,6-2
		c1.184-0.434,1.845-1.378,3-2C97.827,266.747,99.834,264.859,103.548,263.979z"/>
	<path d="M115.548,290.979c-1.031,2.75-5.206,3.771-8,5c-2.711,1.188-6.189,4.343-9,2c0.576-1.835,4.111-1.799,6-3
		c1.206-0.771,2.322-0.322,4-1C110.81,293.064,112.864,290.518,115.548,290.979z"/>
	<path d="M85.548,15.979c6.22-2.805,12.864-2.886,17,2c0.758,0.896,0.364,1.823,1,3c0.282,0.527,1.831,1.565,2,2
		c1.173,3.035-0.053,6.527,1,11c0.395,1.676,1.252,5.131,2,9c0.664,3.446,0.873,6.3,2,10c0.041,0.136,0.831,0.327,1,1
		c0.156,0.627-0.118,1.363,0,2c0.882,4.776,0.258,13.3,1,20c0.266,2.404,1.525,3.925,2,6c0.517,2.265-0.587,4.682,1,6
		c2.845-2.96,2.456-7.551,2-13c-0.053-0.628,0.151-1.392,0-2c-0.268-1.065-1.836-6.667-2-10c-0.14-2.793-0.765-6.127,1-8
		c1.34-3.777,3.228-5.584,6-6c3.427-0.515,4.416,0.982,7,3c0.802,0.626,2.391,1.218,3,2c0.905,1.163,2.188,4.106,3,6
		c0.777,1.816,0.763,4.06,2,6c0.623,0.979,0.644,1.571,1,3c0.177,0.705,0.973,0.87,1,1c0.6,2.788-0.343,5.886,0,9
		c0.257,2.334,1.543,4.466,2,7c0.23,1.291-0.174,2.698,0,4c0.317,2.408,0.651,7.153,1,12c0.587,8.218,1.757,20.871,1,32
		c-0.193,2.833-1.776,5.892-1,9c0.22,0.881,0.678,1.714,1,3c0.276,1.109,0.604,2.001,1,5c0.807,6.104,1.849,18.753,3,27
		c1.396,10.001,2.406,29.326,1,42c-0.438,3.943-2.122,7.975-3,12c-1.132,5.178-1.56,10.26-3,15c-0.042,0.135-0.832,0.326-1,1
		c-0.521,2.085-0.094,2.279-1,5c-0.117,0.352-0.947,0.01-1,1c-0.015,0.255,0.102,0.768,0,1c-0.299,0.68-1.686,1.434-2,2
		c-0.205,0.365,0.307,1.747,0,2c-3.019,2.469-3.818,9.131-5,15c-1.549,7.686-2.658,16.456-2,28c-1.247-0.021-1.325,1.482-2,2
		c-0.894,0.682-1.878,0.359-3,1c-0.551,0.312-1.53,1.798-2,2c-0.554,0.234-1.411-0.148-2,0c-1.164,0.289-1.894,0.775-5,1
		c-0.625,0.043-1.396-0.152-2,0c-0.617,0.152-4.628,1.775-7,2c-7.161,0.673-17.742-0.002-28,0c-9.592,0-20.058,1.281-28,0
		c-0.077-0.014-0.223-0.961-1-1c-1.172-0.062-2.894,0.359-4,0c-0.343-0.111-0.018-0.949-1-1c-1.384-0.072-7.493-4.189-8-5
		c-0.766-1.229-0.566-2.534-1-4c-1.583-5.357-0.492-16.115,0-23c0.174-2.43,0.178-5.632-1-8c-0.461-0.93-1.652-1.346-2-2
		c-0.823-1.561-0.122-2.777-1-4c-0.544-0.757-1.389-1.084-2-2c-0.697-1.046-1.233-1.977-2-3c-0.596-0.796-1.478-1.314-2-2
		c-1.86-2.438-3.372-4.986-5-8c-0.858-1.589-1.555-3.109-3-5c-1.011-1.322-1.809-2.13-3-4c-0.302-0.475-0.848-0.743-1-1
		c-0.918-1.549-1.553-3.107-3-5c-1.521-1.988-2.562-5.214-4-9c-0.103-0.271-0.806-0.221-1-1c-0.497-1.984-0.011-2.443-1-5
		c-0.159-0.412-0.945,0.038-1-1c-0.113-2.146-3.469-7.414-4-11c-1.231-8.318-0.001-19.805,0-31c0-10.596-0.671-22.164,0-31
		c0.481-6.357,2.767-11.842,3-17c0.345-7.62-3.564-18.653,0-24c0.856-1.286,2.465-4.409,6-5c3.306-0.553,5.11,0.83,7,2
		c0.791,0.49,2.443,1.285,3,2c0.573,0.737,0.356,2.201,1,3c0.247,0.307,1.873,0.717,2,1c0.223,0.494-0.312,1.568,0,2
		c0.639,0.88,1.431,0.806,2,2c1.032,2.166,0.847,3.874,2,6c2.315-1.906,0.359-7.116,1-13c0.278-2.559,1.145-5.972,2-9
		c0.095-0.337-0.247-1.798,0-2c1.678-1.373-0.614-4.68,1-6c0.974-0.797,0.803-1.36,1-3c0.035-0.299-0.206-1.833,0-2
		c0.068-0.057,0.99,0.062,1,0c0.84-5.507,0.49-11.843,1-19c0.067-0.948-0.201-2.074,0-3c1.189-5.475,2.052-17.979,4-25
		c0.46-1.661,1.415-3.483,2-5c0.137-0.354-0.271-1.778,0-2c0.116-0.096,0.94,0.125,1,0c0.173-0.363-0.292-1.762,0-2
		c1.494-1.223,4.214-5.632,8-6c1.948-0.189,3.235,0.112,5,1c0.501,0.252-0.11,0.941,1,1c2.688,0.141,3.707,4.905,6,7
		c0.668-5.526-1.335-13.499,1-17c0.522-0.784,0.981-2.47,2-4c2.426-3.646,6.375-7.944,13-5c0.461,0.205-0.08,0.943,1,1
		c-0.057-0.003,2.793,0.83,3,1c1.131,0.931,3.9,5.12,4,7C84.597,10.935,86.383,12.839,85.548,15.979z M121.548,277.979
		c-3.144,2.634-4.973,5.018-8,7c-1.832,1.197-4.029,1.828-6,3c2.197-3.471,5.318-6.016,10-7c-0.847-1.953,1.549-1.412,2-2
		c0.664-0.87,0.373-2.225,1-3c0.602-0.746,2.515-0.002,3-1c0.433-0.893-0.28-3.059-1-3c-2.855,3.01-6.095,5.671-8,8
		c-0.276,0.337-1.66-0.292-2,0c-0.34,0.289,0.318,1.682,0,2c-0.337,0.335-1.655-0.33-2,0c-2.548,2.434-4.03,6.096-8,6
		c-0.813-5.146,2.552-6.116,7-6c0.61-2.38,3.824-3.145,6-5c1.782-1.523,6.539-4.037,4-6c-1.052,2.111-3.353,3.913-5,4
		c-1.115,0.059-0.493,0.74-1,1c-0.798,0.406-2.189-0.385-3,0c-0.391,0.186-0.518,1.795-1,2c-1.66,0.7-3.594,0.247-5,1
		c3.711-4.15,9.67-7.788,14-10c1.538-0.787,4.586-0.49,5-3c-3.114,0.062-5.522,2.37-8,3c-1.14,0.288-1.444-1.247-3-1
		c-0.401,0.062-1.523,3.175-2,1c-0.056-1.273,1.181-0.545,2-1c0.557-0.311,1.395-1.602,2-2c1.692-1.119,3.022-2.309,5-3
		c0.924-1.957,1.677-3.523,3-5c1.136-1.27,3.931-1.67,4-3c0.105-2.01,2.388-2.072,3-3c0.458-0.695-0.36-2.24,0-3
		c0.183-0.387,1.777-0.531,2-1c0.686-1.453,0.229-4.169,2-5c1.386,3.943-1.562,5.096-2,6c-0.507,1.043-0.414,1.825-1,3
		c-0.562,1.122-1.446,1.156-2,2c-1.224,1.857-1.669,3.287-3,5c-1.619,2.081-3.56,2.602-4,5c2.256,0.023,3.272-1.656,5-3
		c1.464-1.141,3.693-2.291,5-4c0.828-1.086,0.33-2.816,1-4c0.427-0.755,1.932-0.702,2-2c0.076-1.477,1.609-3.82,2-5
		c0.289-0.875,0.977-2.541,1-3c0.05-0.961,0.903-0.688,1-1c0.561-1.841,0.46-4.445,1-7c0.785-3.73,1.563-6.699,2-10
		c0.619-4.702,2.719-13.346,3-17c0.532-6.926-0.544-16.034-1-20c-0.493-4.279-0.764-7.895-1-10c-0.623-5.512-1.511-14.283-2-18
		c-0.261-1.962,0.178-3.037-1-4c-0.271-0.222,0.133-1.647,0-2c-0.924-2.446-1.391-5.87-1-9c-0.66-1.18-2.026-1.324-3-3
		c-0.58-0.996,0.439-2.924,0-4c-0.104-0.253-1.785,0.214-2,0c-0.881-0.88-0.103-6.925,1-6c-0.28,2.279,0.239,3.759,2,4
		c2.656-4.838,1.515-12.424,2-21c0.085-1.503,1.145-1.063,0-2c-0.689-0.565,0.924-1.938,1-2c1.812-1.483-0.979-8.831-1-9
		c-0.251-1.925,0.289-4.481,0-6c-0.433-2.256-1.737-3.868-2-6c-0.665-5.372,0.049-11.594-1-17c-0.262-1.349-1.522-3.424-2-5
		c-1.061-3.508-1.33-5.948-2-7c-2.231-3.502-4.265-9.605-9-9c-8.914,5.847,0.266,18.591-2,30c0.617,2.382,4.356,1.642,3,6
		c-2.307,0.306-1.11-2.889-3-3c-0.533,4.759-1.679,9.417-2,14c-0.27,3.841,1.3,2.699,0,4c-2.087,2.086,1.002,13.012,1,13
		c0.647,4.079,0.765,8.387,1,13c1.841,1.082,1.308,2.91,3,3c1.414,0.074,1.132,2.334,2,3c-2.097,0.904-0.355,5.644-3,6
		c-2.757-0.636-2.044-4.273-3-6c-0.161-0.292-1.73,0.236-2,0c-0.497-0.436,0.396-2.451,0-3c-4.821,0.154-4.682-4.652-11-3
		c0.456-3.125-2.137-3.197-5-3c-0.608-4.145-6.369-5.093-2-9c2.396-0.396-0.557,4.555,3,3c-0.155-3.822,0.052-7.282,2-9
		c0.62,3.711-1.627,10.292,2,11c0.119-0.637-0.156-1.373,0-2c0.08-0.323,1.026-1.332,1-1c0.152-1.898-1.122-2.205-1-4
		c0.09-1.338,0.821-1.99,1-4c0.475-5.37-0.408-8.965,1-10c1.205,0.168,1.031,1.579,1,3c-0.021,0.869-0.966,0.827-1,1
		c-0.154,0.767,0.994,1.093,1,1c-0.09,2.036-0.869,3.887-1,6c-0.105,1.703,0.104,4.135,0,6c-0.072,1.292-2.806,5.744,1,5
		c3.383-0.044,0.845-2.634,1-4c0.215-1.905,0.936-4.188,1-6c0.063-1.826-0.975-3.027-1-4c-0.026-0.993,0.812-1.202,1-2
		c0.906-3.856-0.852-5.851-1-8c-0.331-4.745,1.012-9.578,0-14c-0.382-1.667-1.853-3.161-2-5c-0.132-1.624,0.928-3.226,1-5
		c0.076-1.898-1.044-2.202-1-4c0.034-1.439,1.152-1.811,1-4c-0.114-1.643-0.658-4.059-1-6c-0.373-2.111-0.519-5.123-1-7
		c-0.021-0.083-0.919,0.067-1,0c-0.276-0.226,0.142-1.644,0-2c-0.294-0.733-0.885-1.351-1-2c-1.993-11.056-0.34-24.244-8-32
		c-2.335,0-4.667,0-7,0c-0.878,1.883-2.923,3.497-3,5c-0.049,0.922-0.929,0.736-1,1c-1.722,6.37,0.578,21.284,1,26
		c0.367,4.125-0.993,5.826-1,8c-0.019,5.036,0.186,10.514,1,15c0.438,2.42,1.992,4.731,2,7c0.01,2.892-1.59,5.897-2,9
		c-0.211,1.591,0.388,3.448,0,5c-0.631,2.518-0.325,2.739,0,6c0.276,2.785-0.207,5.522,0,8c0.181,2.164,1.073,3.581,1,5
		c-0.041,0.772-0.989,0.929-1,1c-0.112,0.709,0.978,2.139,1,2c-0.253,1.508-0.978,3.412-2,4c-0.012-1.322-1.753-0.915-2-2
		c0-1.333,0-2.667,0-4c-4.53-1.53,0.528,6.53-4,5c-1.322-0.012-0.915-1.753-2-2c-1.257-0.411-2.044-1.29-2-3
		c-0.15-2.483,0.517-4.15,2-5c-0.147,2.48-0.187,4.853,2,5c1.19-4.943,0.96-15.599,2-20c0.951-4.037,2.189-10.851,2-14
		c-0.252-4.149-2.576-6.84-3-10c-0.965-7.205,1.479-18.856,1-29c-0.06-1.228-0.835-1.473-1-3c-0.489-4.498-0.4-10.002,0-13
		c0.198-1.497,1.085-1.784,1-4c-0.053-1.325-0.797-3.068-1-5c-0.156-1.475,0.502-3.618,0-5c-0.143-0.389-1.711-1.532-2-2
		c-0.36-0.581-0.489-2.541-1-3c-0.416-0.374-2.631-0.838-3-1c-0.438-0.193-0.093-0.726-1-1c-3.989-1.207-5.116,2.82-7,2
		c-0.059,4.034-2.479,5.941-3,9c-1.193,7.013,0.983,16.816,0,25c-0.155,1.298-0.897,1.389-1,3c-0.221,3.457,0.243,7.05,0,10
		c-0.064,0.791-0.977,0.878-1,1c-0.122,0.603,0.945,1.305,1,1c-0.227,1.279-1.075,1.38-1,3c0.067,1.462,1.194,1.79,1,4
		c-0.092,1.036-0.632,1.754-1,3c-1.048,3.545-0.54,7.067-1,11c-0.23,1.964-1.808,6.229-2,7c-1.872,7.484-0.659,15.818-1,25
		c1.165,0.168,1.085,1.581,1,3c1.578,1.755,4.592,2.075,5,5c-2.964-1.155-2.8,1.852-4,2c-1.294,0.159-1.955-1.783-4-1
		c-0.485,1.181-1.066,2.267-2,3c-3.923-0.256-3.717,3.617-8,3c-1.484,2.932,1.132,3.714-2,5c-1.29,1.377-4.344,0.989-7,1
		c-0.096,1.571,0.135,3.467-2,3c-0.299,1.966,1.351,1.983,2,3c-1.083,1.907-2.404,2.264-3,5c-0.708,3.248,0.761,6.993,1,10
		c2.2,1.466,7.452-0.12,8,3c-2.974,0.04-7.994-2.976-9,1c1.352,0.98,1.998,2.668,3,4c2.482-0.15,4.149,0.518,5,2
		c-0.934,1.066-3.688,0.311-3,3c1.022,0.977,2.022,1.977,3,3c-0.448,3.743,0.928,4.684,2,6c1.339,1.641,5.741,8.016,7,5
		c-1.052-0.057-0.786-1.281,1-1c1.884,1.449,5.196,1.471,6,4c-2.667,0-5.334,0-8,0c-0.044,1.376,0.471,2.195,1,3
		c0.016,1.65,2.773,0.559,3,2c-0.003,1.003,0.811,1.189,1,2c-0.729,2.271,1.802,7.801-2,7c-3.239-1.092,2.689-6.46-1-8
		c0.916,4.25-2.396,4.27-6,4c0.84-1.161,1.318-2.682,1-5c-2.72-1.363-2.338-5.961-3-7c-1.194-1.875-2.285-3.273-4-4
		c0.075,4.408-0.071,8.596-3,10c-0.759-3.492,3.026-7.551,0-10c0.244,2.73-2.076,7.355-4,7c-0.355-0.066,0.077-2.541-1-2
		c-1.958,1.868-0.31,3.662,0,6c-1.264,0.335-1.404,0.914-3,1c-1.628,0.085-0.743,2-3,2c-0.776,0-1.973-0.207-2-1
		c0.221-0.779,0.837-1.163,2-1c0-1.335,0-2.667,0-4c1.986-0.014,1.271-2.729,4-2c-0.52-3.827,2.488-7.061,3-11
		c1.068-8.24-1.825-13.154-3-18c-0.012-1.322-1.753-0.915-2-2c1.649-0.445,1.649-7.556,0-8c0.948,4.331-3.791,8.143-7,5
		c3.19,0.857,3.094-1.574,5-2c-0.988-3.989,2.988-3.011,2-7c-0.294-3.484-2.707,0.084-3-2c0.71-4.626-0.712-8.815-1-11
		c-0.26-1.961,0.178-3.037-1-4c-0.098-0.081-1.019-4.055-1-4c-0.974-2.877-1.415-4.521-2-5c-0.311-0.254,0.21-1.634,0-2
		c-0.28-0.486-1.545-1.392-2-2c-2.137-2.855-5.299-6.665-9-6c-3.249,3.488-1.824,8.224-2,13c-0.208,5.645-0.085,14.971-1,18
		c-0.993,3.287-0.539,4.83-1,8c-0.216,1.479-0.923,1.834-1,4c-0.065,1.852,0.824,2.253,1,4c0.61,6.092,0.299,12.672,0,19
		c-0.06,1.245-0.86,1.447-1,3c-0.794,8.857-0.466,25.771,1,32c0.461,1.964-0.271,2.96,1,4c0.085,0.068,1.01,3.037,1,3
		c0.31,1.236,0.183,1.331,1,2c0.27,0.221-0.134,1.646,0,2c0.45,1.193,1.093,2.257,2,3c0.904,0.738,0.675,4.293,1,5
		c0.231,0.504,1.683,1.41,2,2c0.554,1.027,0.575,2.173,1,3c1.408,2.743,3.002,5.275,4,7c0.549,0.945,0.361,1.977,1,3
		c0.236,0.379,1.66,0.635,2,1c0.763,0.818,0.339,2.002,1,3c0.41,0.618,1.572,1.312,2,2c0.501,0.807,0.364,2.208,1,3
		c1.922,2.391,5.474,4.9,8,7c6.309,5.236,7.987,6.977,16,6c1.953,1.203,3.484,1.867,6,2c0.689,0.036,1.036,1.003,1,1
		c3.293,0.338,7.599,0.643,8-3c-2.071-0.596-6.568,1.234-7-1c3.106,0.543,5.414-0.516,8-1c2.214-0.415,5.444-0.421,7-2
		c-2.279,0.279-3.76-0.24-4-2c2.333,0,4.666,0,7,0c0.565-0.928,3.744-2.986,4-3c1.706-0.09,2.479-3.624,3-1
		c0.367,3.699-2.689,2.868-4,4c-1.294,1.115-2.739,3.107-4,4c-2.092,1.477-4.291,2.307-7,2c0.604,4.604-5.181,2.818-6,6
		c6.584,0.831,8.466-5.803,14-3c0.221-0.779,0.836-1.163,2-1c-0.126-1.762,1.119-2.254,2-3c0.564-0.48,3.331-3.148,3-1
		c-0.737,2.264-3.812,2.188-4,5c2.932,1.148,3.715-4.797,5-2c-1.878,1.789-3.764,3.57-6,5c-2.409,0.409-2.174-1.827-5-1
		c-1.5,1.166-2.444,2.889-5,3c-2.429-0.409-3.144-1.178-5-1c-1.418,0.135-1.712,1.659-3,2c-1.559,0.411-3.416-0.312-5,0
		c-2.886-0.174-5.935-5.322-8-3c3.811,1.727-3.894-0.077-3,2c2.162,0.837,3.41,2.589,7,2c-0.22,1.256-1.558,2.043,1,2
		c0.057-0.611,0.149-1.186,1-1c0,0.998-0.001,2,0,3c-1.592-2.1-4.98-1.111-7-2c-0.448-0.197-1.312-1.602-2-2
		c-0.98-0.568-1.612-0.891-3-1c-0.835,3.229,2.415,2.414,3,3c0.311,0.311-0.338,1.73,0,2c1.649,1.318,6.3,0.585,6,4
		c-3.023,1.154-5.771-5.672-6-1c-0.277,5.087,0.8,11.568-1,13c-2.86,2.271-0.548,9.309,0,13c8.289,6.77,23.882,5,40,5
		c12.539-0.002,24.507,0.659,31-1c3.034-0.777,4.651-1.577,5-2c0.238-0.293,1.637,0.172,2,0c0.123-0.061-0.098-0.884,0-1
		c0.276-0.34,1.664,0.294,2,0c1.295-1.145,1.715-3.721,2-5c-5.108,0.559-7.488,3.846-11,6c-1.753-0.277-4.989,2.814-6,0
		c2.307-0.932,4.859-2.716,6-3c0.589-0.148,1.446,0.234,2,0c0.46-0.197,1.467-1.678,2-2c0.146-0.09-0.114-0.861,0-1
		c0.235-0.29,1.638,0.165,2,0c1.21-0.559,1.114-1.366,2-2c1.007-0.723,2.223-0.111,3-1c0.663-0.759-0.071-2.67,1-3
		c-2.136-0.227-3.353,2.014-5,3c-0.992,0.592-2.178,0.514-3,1c-0.258,0.15-0.527,0.697-1,1c-0.693,0.441-1.341,0.622-2,1
		c-0.581,0.331-1.326,1.654-2,2c-1.405,0.719-2.569,0.421-4,1c-0.682,0.273-0.889,1.699-2,2c-1.353,0.363-3.802-0.049-4-1
		c2.625-2.318,5.836-1.836,8-3c0.562-0.303,1.344-1.671,2-2c1.16-0.583,2.086-0.434,3-1c0.603-0.375,1.312-1.617,2-2
		c0.949-0.531,2.236-0.648,3-1c0.581-0.271,1.263-1.773,3-1c-1.077-2.557,4.306-3.502,1-5c-0.477,1.98-2.772,1.205-4,2
		c-1.161,0.751-1.651,3.884-4,3c0.614-0.863,1.147-2.434,2-3c1.061-0.708,3.156-0.115,4-1c0.312-0.328-0.193-1.572,0-2
		c0.402-0.898,5.031-3.924,2-5c-0.228,0.818-1.09,1.951-2,2c-1.025,0.055-2.242,1.443-3,2c-0.64,0.467-1.318,1.505-2,2
		c-2.402,1.743-5.401,4.178-8,5c-2.313,0.73-6.252,1.872-7,0c3.613-0.582,7.458-2.018,9-3c2.16-1.378,2.761-1.486,4-3
		c0.271-0.332,1.645,0.264,2,0c0.684-0.509,2.049-2.049,3-3c2.314-2.316,4.456-4.938,3-6
		C123.205,276.905,122.228,277.409,121.548,277.979z M52.548,107.979c-1.48,0.185-0.917,2.417-1,4c-1.311,0.015-1.273,2.773,0,3
		c5.235-4.158,2.375-11.94,3-19c0.014-0.152-0.1-0.9,0-1c1.098-1.097,0.531-1.013,1-3c0.73-3.097,0.657-5.772,1-9
		c0.201-1.894,1.022-3.233,1-5c-0.023-1.858-0.785-2.25-1-4c-0.658-5.375,0.621-6.56,1-11c0.845-9.908,0.497-32.515-3-38
		c-1.133-1.777-2.606-3.09-5-3c-4.178,0.156-7.199,7.988-9,16c-1.627,7.236-2.652,16.352-3,22c-0.302,4.899,0.397,11.598,0,15
		c-0.118,1.012-0.803,1.161-1,2c-0.463,1.964,0.271,2.96-1,4c-0.27,0.221,0.133,1.647,0,2c-2.054,5.446-2.09,15.363-3,20
		c-1.756,8.946-0.75,19.255-1,30c3.008,1.008,1.772-2.228,2-4c2.036-0.297,2.664-2.003,4-3c1.906,0.426,1.81,2.857,5,2
		c-2.298-3.905,1.842-3.959,4-6c0.224-0.776,0.027-1.973,1-2c0.11-3.838,1.833-8.046,3-9c0.275-0.226-0.143-1.644,0-2
		c0.304-0.76,0.855-1.323,1-2c0.364-1.71-1.143-3.855,1-5C52.548,103.979,52.548,105.979,52.548,107.979z"/>
	<path fill="#FFFFFF" d="M123.548,275.979c1.456,1.062-0.686,3.684-3,6c-0.951,0.951-2.316,2.491-3,3c-0.355,0.264-1.729-0.332-2,0
		c-1.239,1.514-1.84,1.622-4,3c-1.542,0.982-5.387,2.418-9,3c0.748,1.872,4.687,0.73,7,0c2.599-0.822,5.598-3.257,8-5
		c0.682-0.495,1.36-1.533,2-2c0.758-0.557,1.975-1.945,3-2c0.91-0.049,1.772-1.182,2-2c3.031,1.076-1.598,4.102-2,5
		c-0.193,0.428,0.312,1.672,0,2c-0.844,0.885-2.939,0.292-4,1c-0.853,0.566-1.386,2.137-2,3c2.349,0.884,2.839-2.249,4-3
		c1.228-0.795,3.523-0.02,4-2c3.306,1.498-2.077,2.443-1,5c-1.737-0.773-2.419,0.729-3,1c-0.764,0.352-2.051,0.469-3,1
		c-0.688,0.383-1.397,1.625-2,2c-0.914,0.566-1.84,0.417-3,1c-0.656,0.329-1.438,1.697-2,2c-2.164,1.164-5.375,0.682-8,3
		c0.198,0.951,2.647,1.363,4,1c1.111-0.301,1.318-1.727,2-2c1.431-0.579,2.595-0.281,4-1c0.674-0.346,1.419-1.669,2-2
		c0.659-0.378,1.307-0.559,2-1c0.473-0.303,0.742-0.85,1-1c0.822-0.486,2.008-0.408,3-1c1.647-0.986,2.864-3.227,5-3
		c-1.071,0.33-0.337,2.241-1,3c-0.777,0.889-1.993,0.277-3,1c-0.886,0.634-0.79,1.441-2,2c-0.362,0.165-1.765-0.29-2,0
		c-0.114,0.139,0.146,0.91,0,1c-0.533,0.322-1.54,1.803-2,2c-0.554,0.234-1.411-0.148-2,0c-1.141,0.284-3.693,2.068-6,3
		c1.011,2.814,4.247-0.277,6,0c3.512-2.154,5.892-5.441,11-6c-0.285,1.279-0.705,3.855-2,5c-0.336,0.294-1.724-0.34-2,0
		c-0.098,0.116,0.123,0.939,0,1c-0.363,0.172-1.762-0.293-2,0c-0.349,0.423-1.966,1.223-5,2c-6.493,1.659-18.461,0.998-31,1
		c-16.118,0-31.711,1.77-40-5c-0.548-3.691-2.86-10.729,0-13c1.8-1.432,0.723-7.913,1-13c0.229-4.672,2.977,2.154,6,1
		c0.3-3.415-4.351-2.682-6-4c-0.338-0.27,0.311-1.689,0-2c-0.585-0.586-3.835,0.229-3-3c1.388,0.109,2.02,0.432,3,1
		c0.688,0.398,1.552,1.803,2,2c2.02,0.889,5.408-0.1,7,2c-0.001-1,0-2.002,0-3c-0.851-0.186-0.943,0.389-1,1
		c-2.558,0.043-1.22-0.744-1-2c-3.59,0.589-4.838-1.163-7-2c-0.894-2.077,6.811-0.273,3-2c2.065-2.322,5.114,2.826,8,3
		c1.584-0.312,3.441,0.411,5,0c1.288-0.341,1.582-1.865,3-2c1.856-0.178,2.571,0.591,5,1c2.556-0.111,3.5-1.834,5-3
		c2.826-0.827,2.591,1.409,5,1c2.236-1.43,4.122-3.211,6-5c-1.285-2.797-2.068,3.148-5,2c0.188-2.812,3.263-2.736,4-5
		c0.331-2.148-2.436,0.52-3,1c-0.881,0.746-2.126,1.238-2,3c-1.164-0.163-1.779,0.221-2,1c-5.534-2.803-7.416,3.831-14,3
		c0.819-3.182,6.604-1.396,6-6c2.709,0.307,4.908-0.523,7-2c1.261-0.893,2.706-2.885,4-4c1.311-1.132,4.367-0.301,4-4
		c-0.521-2.624-1.294,0.91-3,1c-0.256,0.014-3.435,2.072-4,3c-2.334,0-4.667,0-7,0c0.24,1.76,1.721,2.279,4,2
		c-1.556,1.579-4.786,1.585-7,2c-2.586,0.484-4.894,1.543-8,1c0.432,2.234,4.929,0.404,7,1c-0.401,3.643-4.707,3.338-8,3
		c0.036,0.003-0.311-0.964-1-1c-2.516-0.133-4.047-0.797-6-2c-8.013,0.977-9.691-0.764-16-6c-2.526-2.1-6.078-4.609-8-7
		c-0.636-0.792-0.499-2.193-1-3c-0.428-0.688-1.59-1.382-2-2c-0.661-0.998-0.237-2.182-1-3c-0.34-0.365-1.764-0.621-2-1
		c-0.639-1.023-0.451-2.055-1-3c-0.998-1.725-2.592-4.257-4-7c-0.425-0.827-0.446-1.973-1-3c-0.317-0.59-1.769-1.496-2-2
		c-0.325-0.707-0.096-4.262-1-5c-0.907-0.743-1.55-1.807-2-3c-0.134-0.354,0.27-1.779,0-2c-0.817-0.669-0.69-0.764-1-2
		c0.01,0.037-0.915-2.932-1-3c-1.271-1.04-0.539-2.036-1-4c-1.466-6.229-1.794-23.143-1-32c0.14-1.553,0.94-1.755,1-3
		c0.299-6.328,0.61-12.908,0-19c-0.176-1.747-1.065-2.148-1-4c0.077-2.166,0.784-2.521,1-4c0.461-3.17,0.007-4.713,1-8
		c0.915-3.029,0.792-12.355,1-18c0.176-4.776-1.249-9.512,2-13c3.701-0.665,6.863,3.145,9,6c0.455,0.608,1.72,1.514,2,2
		c0.21,0.366-0.311,1.746,0,2c0.585,0.479,1.026,2.123,2,5c-0.019-0.055,0.902,3.919,1,4c1.178,0.963,0.74,2.039,1,4
		c0.288,2.185,1.71,6.374,1,11c0.293,2.084,2.706-1.484,3,2c0.988,3.989-2.988,3.011-2,7c-1.906,0.426-1.81,2.857-5,2
		c3.209,3.143,7.948-0.669,7-5c1.649,0.444,1.649,7.555,0,8c0.247,1.085,1.988,0.678,2,2c1.175,4.846,4.068,9.76,3,18
		c-0.512,3.939-3.52,7.173-3,11c-2.729-0.729-2.014,1.986-4,2c0,1.333,0,2.665,0,4c-1.163-0.163-1.779,0.221-2,1
		c0.027,0.793,1.224,1,2,1c2.257,0,1.372-1.915,3-2c1.596-0.086,1.736-0.665,3-1c-0.31-2.338-1.958-4.132,0-6
		c1.077-0.541,0.645,1.934,1,2c1.924,0.355,4.244-4.27,4-7c3.026,2.449-0.759,6.508,0,10c2.929-1.404,3.075-5.592,3-10
		c1.715,0.727,2.806,2.125,4,4c0.662,1.039,0.28,5.637,3,7c0.318,2.318-0.16,3.839-1,5c3.604,0.27,6.916,0.25,6-4
		c3.689,1.54-2.239,6.908,1,8c3.802,0.801,1.271-4.729,2-7c-0.189-0.811-1.003-0.997-1-2c-0.227-1.441-2.984-0.35-3-2
		c-0.529-0.805-1.044-1.624-1-3c2.666,0,5.333,0,8,0c-0.804-2.529-4.116-2.551-6-4c-1.786-0.281-2.052,0.943-1,1
		c-1.259,3.016-5.661-3.359-7-5c-1.072-1.316-2.448-2.257-2-6c-0.978-1.023-1.978-2.023-3-3c-0.688-2.689,2.066-1.934,3-3
		c-0.851-1.482-2.518-2.15-5-2c-1.002-1.332-1.648-3.02-3-4c1.006-3.976,6.026-0.96,9-1c-0.548-3.12-5.8-1.534-8-3
		c-0.239-3.007-1.708-6.752-1-10c0.596-2.736,1.917-3.093,3-5c-0.649-1.017-2.299-1.034-2-3c2.135,0.467,1.904-1.429,2-3
		c2.656-0.011,5.71,0.377,7-1c3.132-1.286,0.516-2.068,2-5c4.283,0.617,4.077-3.256,8-3c0.934-0.733,1.515-1.819,2-3
		c2.045-0.783,2.706,1.159,4,1c1.2-0.148,1.036-3.155,4-2c-0.408-2.925-3.422-3.245-5-5c0.085-1.419,0.165-2.832-1-3
		c0.341-9.182-0.872-17.516,1-25c0.192-0.771,1.77-5.036,2-7c0.46-3.933-0.048-7.455,1-11c0.368-1.246,0.908-1.964,1-3
		c0.194-2.21-0.933-2.538-1-4c-0.075-1.62,0.773-1.721,1-3c-0.055,0.305-1.122-0.397-1-1c0.023-0.122,0.936-0.209,1-1
		c0.243-2.95-0.221-6.543,0-10c0.103-1.611,0.845-1.702,1-3c0.983-8.184-1.193-17.987,0-25c0.521-3.059,2.941-4.966,3-9
		c1.884,0.82,3.011-3.207,7-2c0.907,0.274,0.562,0.807,1,1c0.369,0.162,2.584,0.626,3,1c0.511,0.459,0.64,2.419,1,3
		c0.289,0.468,1.857,1.611,2,2c0.502,1.382-0.156,3.525,0,5c0.203,1.932,0.947,3.675,1,5c0.085,2.216-0.802,2.503-1,4
		c-0.4,2.998-0.489,8.502,0,13c0.165,1.527,0.94,1.772,1,3c0.479,10.144-1.965,21.795-1,29c0.424,3.16,2.748,5.851,3,10
		c0.189,3.149-1.049,9.963-2,14c-1.04,4.401-0.81,15.057-2,20c-2.187-0.147-2.147-2.52-2-5c-1.483,0.85-2.15,2.517-2,5
		c-0.044,1.71,0.743,2.589,2,3c1.085,0.247,0.678,1.988,2,2c4.528,1.53-0.53-6.53,4-5c0,1.333,0,2.667,0,4
		c0.247,1.085,1.988,0.678,2,2c1.022-0.588,1.747-2.492,2-4c-0.022,0.139-1.112-1.291-1-2c0.011-0.071,0.959-0.228,1-1
		c0.073-1.419-0.819-2.836-1-5c-0.207-2.478,0.276-5.215,0-8c-0.325-3.261-0.631-3.482,0-6c0.388-1.552-0.211-3.409,0-5
		c0.41-3.103,2.01-6.108,2-9c-0.008-2.269-1.562-4.58-2-7c-0.814-4.486-1.019-9.964-1-15c0.007-2.174,1.367-3.875,1-8
		c-0.422-4.716-2.722-19.63-1-26c0.071-0.264,0.951-0.078,1-1c0.077-1.503,2.122-3.117,3-5c2.333,0,4.665,0,7,0
		c7.66,7.756,6.007,20.944,8,32c0.115,0.649,0.706,1.267,1,2c0.142,0.356-0.276,1.774,0,2c0.081,0.067,0.979-0.083,1,0
		c0.481,1.877,0.627,4.889,1,7c0.342,1.941,0.886,4.357,1,6c0.152,2.189-0.966,2.561-1,4c-0.044,1.798,1.076,2.102,1,4
		c-0.072,1.774-1.132,3.376-1,5c0.147,1.839,1.618,3.333,2,5c1.012,4.422-0.331,9.255,0,14c0.148,2.149,1.906,4.144,1,8
		c-0.188,0.798-1.026,1.007-1,2c0.025,0.973,1.063,2.174,1,4c-0.064,1.812-0.785,4.095-1,6c-0.155,1.366,2.383,3.956-1,4
		c-3.806,0.744-1.072-3.708-1-5c0.104-1.865-0.105-4.297,0-6c0.131-2.113,0.91-3.964,1-6c-0.006,0.093-1.154-0.233-1-1
		c0.034-0.173,0.979-0.131,1-1c0.031-1.421,0.205-2.832-1-3c-1.408,1.035-0.525,4.63-1,10c-0.179,2.01-0.91,2.662-1,4
		c-0.122,1.795,1.152,2.102,1,4c0.026-0.332-0.92,0.677-1,1c-0.156,0.627,0.119,1.363,0,2c-3.627-0.708-1.38-7.289-2-11
		c-1.948,1.718-2.155,5.178-2,9c-3.557,1.555-0.604-3.396-3-3c-4.369,3.907,1.392,4.855,2,9c2.863-0.197,5.456-0.125,5,3
		c6.318-1.652,6.179,3.154,11,3c0.396,0.549-0.497,2.564,0,3c0.27,0.236,1.839-0.292,2,0c0.956,1.727,0.243,5.364,3,6
		c2.645-0.356,0.903-5.096,3-6c-0.868-0.666-0.586-2.926-2-3c-1.692-0.09-1.159-1.918-3-3c-0.235-4.613-0.353-8.921-1-13
		c0.002,0.012-3.087-10.914-1-13c1.3-1.301-0.27-0.159,0-4c0.321-4.583,1.467-9.241,2-14c1.89,0.111,0.693,3.306,3,3
		c1.356-4.358-2.383-3.618-3-6c2.266-11.409-6.914-24.153,2-30c4.735-0.605,6.769,5.498,9,9c0.67,1.052,0.939,3.492,2,7
		c0.478,1.576,1.738,3.651,2,5c1.049,5.406,0.335,11.628,1,17c0.263,2.132,1.567,3.744,2,6c0.289,1.519-0.251,4.075,0,6
		c0.021,0.169,2.812,7.517,1,9c-0.076,0.062-1.689,1.435-1,2c1.145,0.937,0.085,0.497,0,2c-0.485,8.576,0.656,16.162-2,21
		c-1.761-0.241-2.28-1.721-2-4c-1.103-0.925-1.881,5.12-1,6c0.215,0.214,1.896-0.253,2,0c0.439,1.076-0.58,3.004,0,4
		c0.974,1.676,2.34,1.82,3,3c-0.391,3.13,0.076,6.554,1,9c0.133,0.353-0.271,1.778,0,2c1.178,0.963,0.739,2.038,1,4
		c0.489,3.717,1.377,12.488,2,18c0.236,2.105,0.507,5.721,1,10c0.456,3.966,1.532,13.074,1,20c-0.281,3.654-2.381,12.298-3,17
		c-0.437,3.301-1.215,6.27-2,10c-0.54,2.555-0.439,5.159-1,7c-0.097,0.312-0.95,0.039-1,1c-0.023,0.459-0.711,2.125-1,3
		c-0.391,1.18-1.924,3.523-2,5c-0.068,1.298-1.573,1.245-2,2c-0.67,1.184-0.172,2.914-1,4c-1.307,1.709-3.536,2.859-5,4
		c-1.728,1.344-2.744,3.023-5,3c0.44-2.398,2.381-2.919,4-5c1.331-1.713,1.776-3.143,3-5c0.554-0.844,1.438-0.878,2-2
		c0.586-1.175,0.493-1.957,1-3c0.438-0.904,3.386-2.057,2-6c-1.771,0.831-1.314,3.547-2,5c-0.223,0.469-1.817,0.613-2,1
		c-0.36,0.76,0.458,2.305,0,3c-0.612,0.928-2.895,0.99-3,3c-0.069,1.33-2.864,1.73-4,3c-1.323,1.477-2.076,3.043-3,5
		c-1.978,0.691-3.308,1.881-5,3c-0.605,0.398-1.443,1.689-2,2c-0.819,0.455-2.056-0.273-2,1c0.477,2.175,1.599-0.938,2-1
		c1.556-0.247,1.86,1.288,3,1c2.478-0.63,4.886-2.938,8-3c-0.414,2.51-3.462,2.213-5,3c-4.33,2.212-10.289,5.85-14,10
		c1.406-0.753,3.34-0.3,5-1c0.482-0.205,0.609-1.814,1-2c0.811-0.385,2.202,0.406,3,0c0.507-0.26-0.115-0.941,1-1
		c1.647-0.087,3.948-1.889,5-4c2.539,1.963-2.218,4.477-4,6c-2.176,1.855-5.39,2.62-6,5c-4.448-0.116-7.813,0.854-7,6
		c3.97,0.096,5.452-3.566,8-6c0.345-0.33,1.663,0.335,2,0c0.318-0.318-0.34-1.711,0-2c0.34-0.292,1.724,0.337,2,0
		c1.905-2.329,5.145-4.99,8-8c0.72-0.059,1.433,2.107,1,3c-0.485,0.998-2.398,0.254-3,1c-0.627,0.775-0.336,2.13-1,3
		c-0.451,0.588-2.847,0.047-2,2c-4.682,0.984-7.803,3.529-10,7c1.971-1.172,4.168-1.803,6-3c3.027-1.982,4.856-4.366,8-7
		C122.228,277.409,123.205,276.905,123.548,275.979z M67.548,38.979c0.057-0.611,0.149-1.184,1-1c-0.113-1.22-0.299-2.368-2-2
		C66.705,37.156,66.375,38.817,67.548,38.979z M77.548,59.979c0.271-1.362-0.619-3.904-1-2
		C76.275,59.34,77.167,61.882,77.548,59.979z M78.548,62.979c2.915,1.47,2.915-4.47,0-3C78.548,60.979,78.548,61.979,78.548,62.979z
		 M103.548,79.979c0.271-1.362-0.619-3.904-1-2C102.275,79.34,103.167,81.882,103.548,79.979z M79.548,99.979
		c0.16-0.697-0.35-5.82-1-3C77.668,100.786,79.083,101.987,79.548,99.979z M73.548,115.979c0.299-1.966-1.351-1.983-2-3
		c-0.224-0.776-0.027-1.973-1-2C69.308,113.871,70.038,115.537,73.548,115.979z M94.548,119.979c-0.605-2.062,1.613-6.947-2-6
		C93.152,116.04,90.933,120.926,94.548,119.979z M134.548,128.979c0.604,5.208,1.438-2.019,1-4c0.772-0.684,2.603-5.958-1-5
		C134.548,122.979,134.548,125.979,134.548,128.979z M70.548,141.979c-0.113,3.17,7.183,4.073,9,2c-1.591-0.928-3.706-0.213-5-1
		c-0.625-0.38,0.093-3.012-2-2C72.327,141.758,71.71,142.142,70.548,141.979z M81.548,144.979c-0.862,2.988,3.522,0.885,6,0
		c0.76-0.271,1.985,0.01,2-1C85.779,143.21,84.767,145.199,81.548,144.979z M94.548,148.979c1.41-3.193-5.984-2.527-6-1
		C91.604,147.256,92.192,149.001,94.548,148.979z M15.548,148.979c-0.072,0.013,0.067,0.932,0,1c-0.834,0.833-4.192-0.859-4,1
		c2.752,2.768,4.178-0.898,7-1c1.226,0.318,6.177-0.161,3-1C19.417,149.212,17.382,148.659,15.548,148.979z M102.548,151.979
		c-1.575-0.521-5.355-3.851-7-1C97.372,151.249,101.154,154.579,102.548,151.979z M55.548,155.979c0.772-0.773-0.295-5.414-2-2
		C54.358,153.479,55.129,156.397,55.548,155.979z M71.548,161.979c0.26,0.271,1.705,1.984,2,2c1.155,0.061,0.445,0.641,1,1
		c2.154,1.395,5.28,3.545,7,3c1.381,5.285,8.215,5.118,11,9c1.376,0.043,2.194-0.473,3-1c0.372,1.238,2.045,1.357,3,2
		c1.057,0.709,1.211,3.145,4,2c0.067,2.932,2.285,3.714,4,5c1.011-4.678-4.012-3.322-3-8c-2,0-4,0-6,0c-0.312-3.75-3.347-4.061-6-3
		c-1.442-0.975-2.648-2.93-4-3c-2.011-0.105-2.072-2.389-3-3c-0.702-0.465-2.269,0.423-3,0c-0.848-0.488-1.932-2.234-3-3
		c-1.048-0.753-1.207-1.029-2-2c-0.276-0.338-1.659,0.289-2,0c-1.969-1.67-3.026-4.281-5-6
		C69.273,159.93,70.855,161.254,71.548,161.979z M66.548,164.979c1.333,0,2.666,0,4,0c2.032,2.635,3.961,5.371,5,9
		c2.636-0.303,3.281,1.385,3,4c1.861-0.957,3.342,2.993,4,0c-3.141-0.312-2.886-1.294-2-2c0.223-0.18-1.992-3.846-2-4
		c-0.061-1.133-0.708-0.475-1-1c-1.579-2.842-3.185-4.844-5-6c-0.686-0.438-1.481-0.424-2-1c-0.256-0.286,0.309-1.811,0-2
		c-2.513-1.549-5.99,0.201-8-3c-1.063-0.044-2.54,0.471-1,1C63.09,162.534,67.784,160.614,66.548,164.979z M117.548,160.979
		c-0.693-0.783-5.581-2.227-6,0C113.3,160.704,116.538,163.793,117.548,160.979z M123.548,165.979c-1.279-0.057-1.386-1.281-3-1
		C118.992,167.44,123.945,167.918,123.548,165.979z M129.548,172.979c-1.279-0.057-1.386-1.281-3-1
		C124.992,174.44,129.945,174.918,129.548,172.979z M69.548,185.979c0.183,0.354,1.717,0.622,2,1c0.335,0.447,0.916,2.7,1,3
		c0.814,2.917,0.44,6.37,1,10c2.688,0.688,1.933-2.066,3-3c-2.841-2.443-1.651-6.762-3-10c-0.063-0.154-1.811-0.846-2-1
		c-0.312-0.255,0.211-1.635,0-2c-0.083-0.143-0.864,0.109-1,0c-0.793-0.648-0.357-3.146-1-4c-0.776-0.225-1.973-0.027-2-1
		c-0.553-4.939-0.515,1.039-2,1c-1.177-0.3-2.511-5.295-4-2c4.656,1.936-0.948,1.395-2,3c1.485,1.182,4.469,0.865,4,4
		c0.057,0.609,0.149,1.184,1,1c1.298-2.48-2.23-4.854,0-5c2.343,2.656,2.709,7.289,6,9c0.673-4.277-5.882-7.416-3-10
		C69.35,181.521,68.505,183.958,69.548,185.979z M135.548,178.979c-1.322-0.012-0.915-1.753-2-2
		C132.402,179.03,135.117,181.747,135.548,178.979z M74.548,183.979c-0.485-1.184-1.066-2.268-2-3
		C72.393,182.316,74.119,186.493,74.548,183.979z M85.548,185.979c0.876-2.061-2.594-4.49-3-2
		C83.975,184.217,84.234,185.625,85.548,185.979z M110.548,186.979c-0.139-1.863-0.658-3.344-2-4
		C108.267,185.258,108.788,186.739,110.548,186.979z M75.548,187.979c0.718,4.508,1.621,12.896,4,15c-0.261-0.23,0.414-2.411,1-2
		c-0.785,4.118,1.534,5.131,1,9c0.942,0.182,1.765,0.08,2,1c1.085,4.236-0.284,9.081,0,14c2.289,0.21,1.686-1.102,2-3
		c0.965-5.827,0.37-13.247,0-18c-0.062-0.799-0.977-0.875-1-1c-0.124-0.615,0.951-1.291,1-1c-0.16-0.961-0.826-0.594-1-1
		c-0.363-0.85,0.307-2.129,0-3c-0.103-0.29-1.819-0.62-2-1c-0.719-1.518,0.165-2.046-1-3c-0.326-0.268,0.251-1.641,0-2
		c-0.468-0.669-2.061-0.76-2-2c0.278-2.279-0.24-3.76-2-4c-0.276,1.752,2.814,4.988,0,6c-0.735-1.357-0.794-8.413-3-5
		C75.158,187.036,75.731,187.127,75.548,187.979z M87.548,196.979c2.76,0.24,3.052,2.947,4,5c-1.48,0.186-0.917,2.415-1,4
		c0.247,1.174,1.443,1.105,2,2c0.604,0.973-0.026,2.504,1,3c0.729,3.979,0.729,4.02,0,8c2.364,1.303,1.928,5.404,3,8
		c-2.798,2.411-0.539,6.639-1,10c-0.356,2.6-3.932,4.896-1,7c0.335-1.266,0.914-1.404,1-3c0.043-0.839,0.969-0.846,1-1
		c0.391-1.917-0.224-5.332,0-8c0.102-1.216,0.773-1.505,1-3c0.873-5.812-1.643-8.141-2-11c-0.169-1.338,1.424-1.85,1-4
		c-0.167-0.85-1.535-2.596-2-4c-1.023-3.104-1.281-6.874-2-8c-1.819-2.855-1.655-6.9-3-8c-0.332-0.271,0.266-1.646,0-2
		c-0.852-1.135-4.003-4.262-5-2C87.123,190.736,88.022,193.17,87.548,196.979z M118.548,194.979
		C117.745,201.034,123.131,195.644,118.548,194.979L118.548,194.979z M89.548,220.979c-0.697,2.922-0.33,5.913,0,7
		c0.91,3.018-1.156,5.925,2,6c-0.219-6.783,1.206-15.208-3-18C87.721,218.805,89.958,218.568,89.548,220.979z M81.548,245.979
		c2.17,1.213,2.386-0.861,4-2c0.776-0.55,5.632-1.361,2-3C86.558,243.657,81.455,242.219,81.548,245.979z M87.548,259.979
		c-1.291,0.359-2.124,1.229-3,2c-1.272,1.115-2.188,2.297-3,3c4.946,0.689,6.834-6.416,8-9c0.168-0.378,1.803-0.529,2-1
		c1.107-2.652,0.188-3.781,1-5c0.688-1.031,2.282-4.773,0-5c-0.576,2.091-2.479,2.854-2,6c-2.672,0.061-2.227,3.904-4,4
		c-1.049,0.055-2.998,3.639-1,3c0.293-0.889,2.705-4.379,3-2C88.771,257.87,87.42,258.185,87.548,259.979z M123.548,251.979
		c-4.604,1.729-4.895,7.771-10,9c1.432-4.9,5.667-7,7-12c-3.323-0.779-2.219,3.691-3,5c-0.935,1.561-4.049,1.686-3,4
		c-1.869,1.839-7.872,4.736-5,8c0.738-4.225,2.818-0.148,5-1c0.133-0.053,0.855-1.824,1-2c0.276-0.339,1.664,0.296,2,0
		c1.572-1.389,1.363-2.589,2-4c0.157-0.354,1.765-0.584,2-1c1.215-2.145,0.236-3.311,1-5c0.168-0.378,1.802-0.529,2-1
		c0.568-1.348,0.721-3.773,0-4C124.233,249.331,123.125,249.888,123.548,251.979z M85.548,253.979c0-0.667,0-1.334,0-2
		c2.062,0.879,3.786-3.297,2-3C87.599,250.812,82.423,252.364,85.548,253.979z M95.548,267.979c-1.155,0.622-1.816,1.566-3,2
		c-2.326,0.85-5.094-1.54-6,2c3.14,2.639,6.934-0.471,9-2c3.479-1.188,7.502-1.832,8-6
		C99.834,264.859,97.827,266.747,95.548,267.979z M108.548,293.979c-1.678,0.678-2.794,0.229-4,1c-1.889,1.201-5.424,1.165-6,3
		c2.811,2.343,6.289-0.812,9-2c2.794-1.229,6.969-2.25,8-5C112.864,290.518,110.81,293.064,108.548,293.979z"/>
	<path d="M69.548,156.979c1.974,1.719,3.031,4.33,5,6c0.341,0.289,1.724-0.338,2,0c0.793,0.971,0.952,1.247,2,2
		c1.068,0.766,2.152,2.512,3,3c0.731,0.423,2.298-0.465,3,0c0.928,0.611,0.989,2.895,3,3c1.352,0.07,2.558,2.025,4,3
		c2.653-1.061,5.688-0.75,6,3c2,0,4,0,6,0c-1.012,4.678,4.011,3.322,3,8c-1.715-1.286-3.933-2.068-4-5c-2.789,1.145-2.943-1.291-4-2
		c-0.955-0.643-2.628-0.762-3-2c-0.806,0.527-1.624,1.043-3,1c-2.785-3.882-9.619-3.715-11-9c-1.72,0.545-4.846-1.605-7-3
		c-0.555-0.359,0.155-0.939-1-1c-0.295-0.016-1.74-1.729-2-2C70.855,161.254,69.273,159.93,69.548,156.979z"/>
	<path d="M61.548,159.979c-1.54-0.529-0.063-1.044,1-1c2.01,3.201,5.487,1.451,8,3c0.309,0.189-0.256,1.714,0,2
		c0.519,0.576,1.314,0.562,2,1c1.815,1.156,3.422,3.158,5,6c0.292,0.525,0.939-0.133,1,1c0.008,0.154,2.223,3.82,2,4
		c-0.886,0.706-1.141,1.688,2,2c-0.658,2.993-2.139-0.957-4,0c0.281-2.615-0.364-4.303-3-4c-1.039-3.629-2.968-6.365-5-9
		c-1.334,0-2.667,0-4,0C67.784,160.614,63.09,162.534,61.548,159.979z"/>
	<path d="M67.548,179.979c-2.882,2.584,3.673,5.723,3,10c-3.291-1.711-3.657-6.344-6-9c-2.23,0.146,1.298,2.52,0,5
		c-0.851,0.184-0.943-0.391-1-1c0.469-3.135-2.515-2.818-4-4c1.052-1.605,6.656-1.064,2-3c1.489-3.295,2.823,1.7,4,2
		c1.485,0.039,1.447-5.939,2-1c0.027,0.973,1.224,0.775,2,1c0.643,0.854,0.207,3.352,1,4c0.136,0.109,0.917-0.143,1,0
		c0.211,0.365-0.312,1.745,0,2c0.189,0.154,1.937,0.846,2,1c1.349,3.238,0.159,7.557,3,10c-1.067,0.934-0.312,3.688-3,3
		c-0.56-3.63-0.186-7.083-1-10c-0.084-0.3-0.665-2.553-1-3c-0.283-0.378-1.817-0.646-2-1
		C68.505,183.958,69.35,181.521,67.548,179.979z"/>
	<path d="M72.548,180.979c0.934,0.732,1.515,1.816,2,3C74.119,186.493,72.393,182.316,72.548,180.979z"/>
	<path d="M84.548,189.979c0.997-2.262,4.148,0.865,5,2c0.266,0.354-0.332,1.729,0,2c1.345,1.1,1.181,5.145,3,8
		c0.719,1.126,0.977,4.896,2,8c0.465,1.404,1.833,3.15,2,4c0.424,2.15-1.169,2.662-1,4c0.357,2.859,2.873,5.188,2,11
		c-0.227,1.495-0.898,1.784-1,3c-0.224,2.668,0.391,6.083,0,8c-0.031,0.154-0.957,0.161-1,1c-0.086,1.596-0.665,1.734-1,3
		c-2.932-2.104,0.644-4.4,1-7c0.461-3.361-1.798-7.589,1-10c-1.072-2.596-0.636-6.697-3-8c0.729-3.98,0.729-4.021,0-8
		c-1.026-0.496-0.396-2.027-1-3c-0.557-0.895-1.753-0.826-2-2c0.083-1.585-0.48-3.814,1-4c-0.948-2.053-1.24-4.76-4-5
		C88.022,193.17,87.123,190.736,84.548,189.979z"/>
	<path d="M88.548,255.979c-0.295-2.379-2.707,1.111-3,2c-1.998,0.639-0.049-2.945,1-3c1.773-0.096,1.328-3.939,4-4
		c-0.479-3.146,1.424-3.909,2-6c2.282,0.227,0.688,3.969,0,5c-0.812,1.219,0.107,2.348-1,5c-0.197,0.471-1.832,0.622-2,1
		c-1.166,2.584-3.054,9.689-8,9c0.812-0.703,1.728-1.885,3-3c0.876-0.771,1.709-1.641,3-2
		C87.42,258.185,88.771,257.87,88.548,255.979z"/>
	<path d="M124.548,247.979c0.721,0.227,0.568,2.652,0,4c-0.198,0.471-1.832,0.622-2,1c-0.764,1.689,0.215,2.855-1,5
		c-0.235,0.416-1.843,0.646-2,1c-0.637,1.411-0.428,2.611-2,4c-0.336,0.296-1.724-0.339-2,0c-0.145,0.176-0.867,1.947-1,2
		c-2.182,0.852-4.262-3.225-5,1c-2.872-3.264,3.131-6.161,5-8c-1.049-2.314,2.065-2.439,3-4c0.781-1.309-0.323-5.779,3-5
		c-1.333,5-5.568,7.1-7,12c5.105-1.229,5.396-7.271,10-9C123.125,249.888,124.233,249.331,124.548,247.979z"/>
	<path d="M87.548,248.979c1.786-0.297,0.062,3.879-2,3c0,0.666,0,1.333,0,2C82.423,252.364,87.599,250.812,87.548,248.979z"/>
	<path fill="#FFFFFF" d="M52.548,101.979c-2.143,1.145-0.636,3.29-1,5c-0.145,0.677-0.696,1.24-1,2c-0.143,0.356,0.275,1.774,0,2
		c-1.167,0.954-2.89,5.162-3,9c-0.973,0.027-0.776,1.224-1,2c-2.158,2.041-6.298,2.095-4,6c-3.19,0.857-3.094-1.574-5-2
		c-1.336,0.997-1.964,2.703-4,3c-0.228,1.772,1.008,5.008-2,4c0.25-10.745-0.756-21.054,1-30c0.91-4.637,0.946-14.554,3-20
		c0.133-0.353-0.27-1.779,0-2c1.271-1.04,0.537-2.036,1-4c0.197-0.839,0.882-0.988,1-2c0.397-3.402-0.302-10.101,0-15
		c0.348-5.648,1.373-14.764,3-22c1.801-8.012,4.822-15.844,9-16c2.394-0.09,3.867,1.223,5,3c3.497,5.485,3.845,28.092,3,38
		c-0.379,4.44-1.658,5.625-1,11c0.215,1.75,0.977,2.142,1,4c0.022,1.767-0.799,3.106-1,5c-0.343,3.228-0.27,5.903-1,9
		c-0.469,1.987,0.098,1.903-1,3c-0.1,0.1,0.014,0.848,0,1c-0.625,7.06,2.235,14.842-3,19c-1.273-0.227-1.311-2.985,0-3
		c0.083-1.583-0.48-3.815,1-4C52.548,105.979,52.548,103.979,52.548,101.979z"/>
</g>
</svg>
