<?xml version="1.0" encoding="UTF-8" standalone="no"?>
<!-- Created with Inkscape (http://www.inkscape.org/) -->
<svg
   xmlns:dc="http://purl.org/dc/elements/1.1/"
   xmlns:cc="http://web.resource.org/cc/"
   xmlns:rdf="http://www.w3.org/1999/02/22-rdf-syntax-ns#"
   xmlns:svg="http://www.w3.org/2000/svg"
   xmlns="http://www.w3.org/2000/svg"
   xmlns:xlink="http://www.w3.org/1999/xlink"
   xmlns:sodipodi="http://sodipodi.sourceforge.net/DTD/sodipodi-0.dtd"
   xmlns:inkscape="http://www.inkscape.org/namespaces/inkscape"
   width="220"
   height="500"
   id="svg2246"
   sodipodi:version="0.32"
   inkscape:version="0.46dev+devel"
   sodipodi:docname="scissors.svg"
   inkscape:output_extension="org.inkscape.output.svg.inkscape"
   version="1.0">
  <defs
     id="defs2248">
    <linearGradient
       id="linearGradient8696">
      <stop
         style="stop-color:#999999;stop-opacity:1;"
         offset="0"
         id="stop8698" />
      <stop
         style="stop-color:#444444;stop-opacity:1;"
         offset="1"
         id="stop8700" />
    </linearGradient>
    <linearGradient
       id="linearGradient6776">
      <stop
         style="stop-color:#ffffff;stop-opacity:1;"
         offset="0"
         id="stop6778" />
      <stop
         id="stop7927"
         offset="0.37333333"
         style="stop-color:#ffffff;stop-opacity:1;" />
      <stop
         style="stop-color:#ffffff;stop-opacity:0;"
         offset="1"
         id="stop6780" />
    </linearGradient>
    <linearGradient
       id="linearGradient6380">
      <stop
         style="stop-color:#ffffff;stop-opacity:1;"
         offset="0"
         id="stop6382" />
      <stop
         id="stop6769"
         offset="0.80000001"
         style="stop-color:#ffffff;stop-opacity:1;" />
      <stop
         style="stop-color:#ffffff;stop-opacity:0;"
         offset="1"
         id="stop6384" />
    </linearGradient>
    <linearGradient
       inkscape:collect="always"
       id="linearGradient5584">
      <stop
         style="stop-color:#666666;stop-opacity:1;"
         offset="0"
         id="stop5586" />
      <stop
         id="stop5592"
         offset="0.28824726"
         style="stop-color:#cccccc;stop-opacity:1" />
      <stop
         style="stop-color:#cccccc;stop-opacity:1"
         offset="0.68441892"
         id="stop5594" />
      <stop
         style="stop-color:#b3b3b3;stop-opacity:1"
         offset="1"
         id="stop5588" />
    </linearGradient>
    <linearGradient
       id="linearGradient4419">
      <stop
         style="stop-color:#cccccc;stop-opacity:1"
         offset="0"
         id="stop4421" />
      <stop
         id="stop4429"
         offset="0.1554105"
         style="stop-color:#e6e6e6;stop-opacity:1" />
      <stop
         style="stop-color:#f2f2f2;stop-opacity:1"
         offset="0.29514629"
         id="stop4431" />
      <stop
         id="stop4427"
         offset="0.5"
         style="stop-color:#b3b3b3;stop-opacity:1;" />
      <stop
         style="stop-color:#e6e6e6;stop-opacity:1"
         offset="0.81218886"
         id="stop4433" />
      <stop
         style="stop-color:#a0a0a0;stop-opacity:1;"
         offset="1"
         id="stop4423" />
    </linearGradient>
    <linearGradient
       id="linearGradient4407">
      <stop
         id="stop4415"
         offset="0"
         style="stop-color:#cbcbcb;stop-opacity:1;" />
      <stop
         style="stop-color:#acacac;stop-opacity:1;"
         offset="0.28666666"
         id="stop4417" />
      <stop
         style="stop-color:#121212;stop-opacity:1;"
         offset="1"
         id="stop4411" />
    </linearGradient>
    <radialGradient
       inkscape:collect="always"
       xlink:href="#linearGradient4407"
       id="radialGradient4413"
       cx="286.82208"
       cy="189.07069"
       fx="286.66074"
       fy="186.48914"
       r="7.5735755"
       gradientUnits="userSpaceOnUse" />
    <linearGradient
       inkscape:collect="always"
       xlink:href="#linearGradient4419"
       id="linearGradient4425"
       x1="288.86444"
       y1="233.25812"
       x2="283.18057"
       y2="17.858913"
       gradientUnits="userSpaceOnUse" />
    <linearGradient
       inkscape:collect="always"
       xlink:href="#linearGradient5584"
       id="linearGradient5602"
       gradientUnits="userSpaceOnUse"
       x1="297.54654"
       y1="161.17818"
       x2="288.41931"
       y2="11.633578"
       gradientTransform="translate(-0.4563597,0.4563597)" />
    <radialGradient
       inkscape:collect="always"
       xlink:href="#linearGradient6776"
       id="radialGradient6782"
       cx="290.24475"
       cy="191.35251"
       fx="290.24475"
       fy="191.35251"
       r="34.270615"
       gradientTransform="matrix(1,0,0,0.7736219,0,43.318004)"
       gradientUnits="userSpaceOnUse" />
    <linearGradient
       inkscape:collect="always"
       xlink:href="#linearGradient8696"
       id="linearGradient8702"
       x1="277.4863"
       y1="216.06372"
       x2="281.35284"
       y2="214.0101"
       gradientUnits="userSpaceOnUse" />
    <linearGradient
       inkscape:collect="always"
       xlink:href="#linearGradient8696"
       id="linearGradient13563"
       gradientUnits="userSpaceOnUse"
       x1="277.02994"
       y1="216.2919"
       x2="281.35284"
       y2="214.0101" />
    <linearGradient
       inkscape:collect="always"
       xlink:href="#linearGradient4419"
       id="linearGradient13565"
       gradientUnits="userSpaceOnUse"
       x1="288.86444"
       y1="233.25812"
       x2="283.01923"
       y2="17.697565" />
    <radialGradient
       inkscape:collect="always"
       xlink:href="#linearGradient6776"
       id="radialGradient13567"
       gradientUnits="userSpaceOnUse"
       gradientTransform="matrix(1,0,0,0.7736219,0,43.318004)"
       cx="290.70111"
       cy="191.35251"
       fx="290.70111"
       fy="191.35251"
       r="34.270615" />
    <radialGradient
       inkscape:collect="always"
       xlink:href="#linearGradient4407"
       id="radialGradient13569"
       gradientUnits="userSpaceOnUse"
       cx="286.82208"
       cy="189.07069"
       fx="286.66074"
       fy="186.48914"
       r="7.5735755" />
    <linearGradient
       inkscape:collect="always"
       xlink:href="#linearGradient5584"
       id="linearGradient13571"
       gradientUnits="userSpaceOnUse"
       gradientTransform="translate(-0.4563597,0.4563597)"
       x1="297.54654"
       y1="161.17818"
       x2="288.41931"
       y2="11.633578" />
  </defs>
  <sodipodi:namedview
     id="base"
     pagecolor="#ffffff"
     bordercolor="#666666"
     borderopacity="1.0"
     inkscape:pageopacity="0.0"
     inkscape:pageshadow="2"
     inkscape:zoom="1"
     inkscape:cx="292.6201"
     inkscape:cy="243.42248"
     inkscape:current-layer="layer1"
     inkscape:document-units="px"
     gridtolerance="10000"
     inkscape:window-width="1280"
     inkscape:window-height="774"
     inkscape:window-x="-4"
     inkscape:window-y="-4"
     showguides="true"
     inkscape:guide-bbox="true"
     height="500px"
     width="220px">
    <inkscape:grid
       type="xygrid"
       id="grid2254" />
  </sodipodi:namedview>
  <metadata
     id="metadata2251">
    <rdf:RDF>
      <cc:Work
         rdf:about="">
        <dc:format>image/svg+xml</dc:format>
        <dc:type
           rdf:resource="http://purl.org/dc/dcmitype/StillImage" />
      </cc:Work>
    </rdf:RDF>
  </metadata>
  <g
     id="layer1"
     inkscape:label="Layer 1"
     inkscape:groupmode="layer">
    <g
       id="g13519"
       transform="matrix(1.4075569,0,0,1.4075569,-289.85613,-22.203603)">
      <path
         sodipodi:nodetypes="cccccc"
         id="path3611"
         d="M 270,215 L 281.36908,19.107237 L 284.54364,20.476316 L 295,200 L 280,225 L 270,215 z"
         style="fill:url(#linearGradient13563);fill-opacity:1;fill-rule:evenodd;stroke:#cccccc;stroke-width:1px;stroke-linecap:butt;stroke-linejoin:miter;stroke-opacity:1" />
      <path
         id="path12363"
         d="M 278.83578,226.26401 L 285.22481,215.31137"
         style="fill:none;fill-opacity:0.75;fill-rule:evenodd;stroke:#4d4d4d;stroke-width:1px;stroke-linecap:butt;stroke-linejoin:miter;stroke-opacity:1" />
      <path
         id="path2256"
         d="M 265.28125,207.9375 L 264,208.625 L 264,270 C 264,300 220,290 210,320 C 200,350 220,370 240,370 C 260,370 280,350 280,330 L 280,226 L 265.28125,207.9375 z M 247.375,307.4375 C 252.29489,307.38007 257.05084,309.47595 260.03125,313.46875 C 268.34533,325.69585 265.83458,346.08962 252.21875,353.71875 C 239.81276,361.23431 221.90608,353.12517 219.40625,338.84375 C 215.64637,322.96532 231.28806,308.49606 246.375,307.46875 C 246.70384,307.44559 247.04701,307.44133 247.375,307.4375 z"
         style="fill:#1a1a1a;fill-opacity:1;fill-rule:evenodd;stroke:#000000;stroke-width:2;stroke-linecap:butt;stroke-linejoin:round;stroke-miterlimit:4;stroke-dasharray:none;stroke-opacity:1" />
      <path
         sodipodi:nodetypes="ccccc"
         id="rect3602"
         d="M 280,318 L 284,320 L 284,330 L 280,332 L 280,318 z"
         style="fill:#181818;fill-opacity:1;fill-rule:evenodd;stroke:#000000;stroke-width:1;stroke-linecap:butt;stroke-linejoin:miter;stroke-miterlimit:4;stroke-dashoffset:0;stroke-opacity:1" />
      <path
         style="fill:#181818;fill-opacity:1;fill-rule:evenodd;stroke:#000000;stroke-width:1;stroke-linecap:butt;stroke-linejoin:miter;stroke-miterlimit:4;stroke-dashoffset:0;stroke-opacity:1"
         d="M 288.16993,318 L 284.16993,320 L 284.16993,330 L 288.16993,332 L 288.16993,318 z"
         id="path3619"
         sodipodi:nodetypes="ccccc" />
      <path
         style="fill:url(#linearGradient13565);fill-opacity:1;fill-rule:evenodd;stroke:#808080;stroke-width:1px;stroke-linecap:butt;stroke-linejoin:miter;stroke-opacity:1"
         d="M 298.16993,215 L 284.45222,16.274564 L 281.73402,18.072319 L 273.16993,200 L 288.16993,225 L 298.16993,215 z"
         id="path3613"
         sodipodi:nodetypes="cccccc" />
      <path
         id="path6774"
         d="M 294.75,165.4375 L 274.78125,165.5 L 273.25,197.90625 L 287.75,217.375 L 297.75,208.9375 L 294.75,165.4375 z"
         style="fill:url(#radialGradient13567);fill-opacity:1;fill-rule:evenodd;stroke:none;stroke-width:1px;stroke-linecap:butt;stroke-linejoin:miter;stroke-opacity:1" />
      <path
         transform="translate(-2.7381582,0)"
         d="M 293.89566,189.07069 A 7.0735755,7.0735755 0 1 1 279.74851,189.07069 A 7.0735755,7.0735755 0 1 1 293.89566,189.07069 z"
         sodipodi:ry="7.0735755"
         sodipodi:rx="7.0735755"
         sodipodi:cy="189.07069"
         sodipodi:cx="286.82208"
         id="path3641"
         style="opacity:1;fill:url(#radialGradient13569);fill-opacity:1;fill-rule:evenodd;stroke:#1a1a1a;stroke-width:1;stroke-linecap:butt;stroke-linejoin:miter;stroke-miterlimit:4;stroke-dasharray:none;stroke-dashoffset:0;stroke-opacity:1"
         sodipodi:type="arc" />
      <path
         id="path4437"
         d="M 284.4375,16.28125 L 281.71875,18.0625 L 281.0625,32.3125 L 289.34375,157.8125 C 289.60045,161.66304 291.70736,162.3411 294.5,162.03125 L 284.4375,16.28125 z"
         style="fill:#ffffff;fill-opacity:1;fill-rule:evenodd;stroke:none;stroke-width:1px;stroke-linecap:butt;stroke-linejoin:miter;stroke-opacity:1" />
      <path
         id="path4820"
         d="M 284.4375,16.28125 L 281.71875,18.0625 L 281.25,27.9375 L 289.78125,157.34375 C 290.02222,160.95835 291.92732,161.76372 294.46875,161.59375 L 284.4375,16.28125 z"
         style="fill:url(#linearGradient13571);fill-opacity:1;fill-rule:evenodd;stroke:none;stroke-width:1px;stroke-linecap:butt;stroke-linejoin:miter;stroke-opacity:1" />
      <path
         sodipodi:nodetypes="cccccc"
         id="path7932"
         d="M 298.16993,215 L 284.45222,16.274564 L 281.73402,18.072319 L 273.16993,200 L 288.16993,225 L 298.16993,215 z"
         style="fill:none;fill-opacity:1;fill-rule:evenodd;stroke:#808080;stroke-width:0.71045083;stroke-linecap:butt;stroke-linejoin:round;stroke-miterlimit:4;stroke-dasharray:none;stroke-opacity:1" />
      <path
         id="path3615"
         d="M 302.875,207.9375 L 288.15625,226 L 288.15625,330 C 288.15626,350 308.15625,370 328.15625,370 C 348.15626,370 368.15625,350 358.15625,320 C 348.15626,290 304.15625,300 304.15625,270 L 304.15625,208.625 L 302.875,207.9375 z M 320.8125,307.4375 C 321.14049,307.44133 321.45241,307.44559 321.78125,307.46875 C 336.8682,308.49606 352.54113,322.96532 348.78125,338.84375 C 346.28143,353.12517 328.34349,361.23431 315.9375,353.71875 C 302.32166,346.08962 299.81092,325.69585 308.125,313.46875 C 311.10542,309.47595 315.89261,307.38007 320.8125,307.4375 z"
         style="fill:#1a1a1a;fill-opacity:1;fill-rule:evenodd;stroke:#000000;stroke-width:2;stroke-linecap:butt;stroke-linejoin:round;stroke-miterlimit:4;stroke-dasharray:none;stroke-opacity:1" />
      <g
         id="g11133">
        <path
           id="path11135"
           d="M 270.5,269.8125 C 271.48938,285.4002 257.3568,296.90832 243.56811,300.74215 C 238.64086,302.44074 244.42799,300.90883 246.28125,300.9375 C 260.97949,299.49788 271.60466,314.64187 271.375,328.15625 C 272.37517,336.65523 268.17878,346.79676 263.71875,352.21875 C 275.76977,340.78182 273.80804,322.94993 273.45557,307.84424 C 273.28928,281.33399 273.79393,254.67094 273.34375,228.25 C 269.84252,222.16291 270.3629,227.89591 270.5,232.5625 C 270.5,244.97917 270.5,257.39583 270.5,269.8125 z M 219.09375,352.53125 C 223.7979,360.73928 236.15722,364.65919 243.28125,363.125 C 233.94765,363.78893 224.78416,359.38649 218.9375,352.3125 L 219.09375,352.53125 z"
           style="opacity:0.09090899;fill:#4d4d4d;fill-opacity:1;fill-rule:evenodd;stroke:none;stroke-width:2;stroke-linecap:butt;stroke-linejoin:miter;stroke-miterlimit:4;stroke-opacity:1" />
        <path
           id="path11140"
           d="M 269.96875,223.3125 C 269.68878,240.82688 270.62504,258.48548 269.625,275.9375 C 266.71945,289.80085 253.19439,297.59259 240.625,301.375 C 230.57086,305.17714 218.26873,311.94347 215.5,322.3125 C 222.00305,308.27634 239.08055,298.40785 254.46875,302.40625 C 270.15467,308.37139 274.44147,329.01437 268.34375,343.375 C 263.49783,356.29648 249.09244,365.6843 235.125,361.9375 C 225.82488,359.74211 217.96633,352.6813 214.53125,343.84375 C 217.61478,357.2999 232.19918,366.8406 245.75,363.25 C 262.26429,359.57111 274.91009,343.41472 274.125,326.4375 C 273.7789,293.70821 274.08343,260.96234 274,228.21875 C 272.67836,226.86461 270.7318,223.70486 269.96875,223.3125 z"
           style="opacity:0.09090899;fill:#4d4d4d;fill-opacity:1;fill-rule:evenodd;stroke:none;stroke-width:2;stroke-linecap:butt;stroke-linejoin:miter;stroke-miterlimit:4;stroke-opacity:1" />
        <path
           id="path11145"
           d="M 269.21875,221.34375 C 269.32239,221.31124 269.17582,221.28609 269.21875,221.34375 z M 269.21875,221.34375 C 269.61659,239.14133 269.79905,257.28533 269.21875,275.125 C 266.85818,288.96163 253.42793,296.98535 240.95555,300.71153 C 229.39676,305.04947 216.37218,312.24201 213.96875,325.4375 C 209.24338,340.88523 217.67639,361.10186 234.84375,363.9375 C 255.28994,367.32498 275.06181,348.26592 274.53125,327.84375 C 274.66018,306.88372 274.25007,285.91158 274.5,264.9375 C 274.24776,252.5534 275.00302,239.7468 274.125,227.625 C 272.47857,225.59508 270.92159,223.33694 269.21875,221.34375 z M 247.71875,301.875 C 261.97961,301.54658 271.13505,316.87106 270.4375,329.90625 C 271.13494,347.21678 255.72492,365.0483 237.5625,361.875 C 220.5016,359.7891 207.84895,339.89244 215.375,323.8125 C 220.62518,311.00524 233.92953,302.31336 247.71875,301.875 z"
           style="opacity:0.09090899;fill:#4d4d4d;fill-opacity:1;fill-rule:evenodd;stroke:none;stroke-width:2;stroke-linecap:butt;stroke-linejoin:miter;stroke-miterlimit:4;stroke-opacity:1" />
        <path
           id="path11150"
           d="M 268.6875,220.40625 C 269.18866,238.57376 269.22489,256.88999 268.75,275.0625 C 266.35796,288.88564 252.6581,296.75313 240.25,300.4375 C 228.40122,304.8793 215.52535,312.49385 213.28125,326.03125 C 208.7952,341.9949 218.05361,362.32446 235.59375,364.5625 C 256.59557,367.35927 276.02205,347.56575 275.10085,326.87742 C 274.75879,293.85801 275.18895,260.71947 274.90625,227.75 C 272.82596,225.67407 270.66827,221.42266 268.6875,220.40625 z M 247.75,302.375 C 261.73313,302.09058 270.58134,317.08023 269.9375,329.90625 C 270.62392,346.91811 255.54402,364.44995 237.65625,361.40625 C 220.58018,359.28423 208.17947,339.2505 216.125,323.3125 C 221.51628,311.04975 234.40207,302.79126 247.75,302.375 z"
           style="opacity:0.09090899;fill:#4d4d4d;fill-opacity:1;fill-rule:evenodd;stroke:none;stroke-width:2;stroke-linecap:butt;stroke-linejoin:miter;stroke-miterlimit:4;stroke-opacity:1" />
        <path
           id="path11155"
           d="M 268.34375,219.375 C 268.18435,223.40431 268.76257,227.53677 268.5,231.625 C 268.36344,245.87054 268.75372,260.14704 268.34375,274.375 C 266.50206,286.66735 255.19955,295.06326 243.8798,298.48565 C 233.04538,302.78196 220.75305,307.6263 215.25,318.625 C 209.31359,331.35628 210.84564,348.1926 221.21875,358.09375 C 229.98142,366.81182 244.73228,367.38781 255.09375,361.3125 C 266.59493,355.18997 275.18087,343.03157 275.40304,329.69161 C 276.33489,316.298 274.80878,302.87377 275.5,289.46875 C 275.5,268.85417 275.5,248.23958 275.5,227.625 C 272.97839,225.1472 271.33592,221.31067 268.34375,219.375 z M 247.75,302.875 C 259.09476,302.53651 267.44384,313.22453 268.95948,323.64906 C 271.53886,337.40103 264.97692,352.76322 252.21875,358.875 C 240.89336,364.28961 226.47502,359.77267 219.46875,349.6875 C 213.58722,342.14582 212.56673,331.44296 216.875,322.9375 C 222.21069,311.21811 234.84693,303.27583 247.75,302.875 z"
           style="opacity:0.09090899;fill:#4d4d4d;fill-opacity:1;fill-rule:evenodd;stroke:none;stroke-width:2;stroke-linecap:butt;stroke-linejoin:miter;stroke-miterlimit:4;stroke-opacity:1" />
        <path
           id="path11160"
           d="M 268,269.9375 C 268.90392,283.67912 256.73135,293.92446 244.65385,297.64423 C 232.14744,302.53374 216.91848,308.46793 213.21875,322.8125 C 207.74524,338.19829 213.79689,358.26263 230.09375,364.1875 C 248.8846,371.08564 270.04353,355.99959 274.84375,337.625 C 277.70638,322.9455 275.14921,307.85084 276,293 C 276,271.14583 276,249.29167 276,227.4375 C 272.52074,223.88399 266.21665,212.39524 268,223.625 C 268,239.0625 268,254.5 268,269.9375 z M 247.75,303.375 C 260.35527,303.06357 268.69056,316.04735 268.8125,327.625 C 270.43384,343.70594 257.98681,361.4699 240.8125,360.625 C 224.65195,360.49316 210.71024,343.465 215.71875,327.5625 C 219.50951,313.63715 233.53811,303.81157 247.75,303.375 z"
           style="opacity:0.09090899;fill:#4d4d4d;fill-opacity:1;fill-rule:evenodd;stroke:none;stroke-width:2;stroke-linecap:butt;stroke-linejoin:miter;stroke-miterlimit:4;stroke-opacity:1" />
        <path
           id="path11163"
           d="M 268.15625,218.34375 C 266.03238,219.65913 267.93588,223.14022 267.5,225.1875 C 267.37869,241.50529 267.72803,257.85289 267.35391,274.1535 C 265.61638,285.95911 254.87817,294.02117 244.0016,297.36575 C 232.5865,301.84393 219.48879,306.99673 214.09375,318.8125 C 208.35814,331.6143 209.91992,348.09976 219.96875,358.28125 C 228.78444,367.51073 243.82151,368.63401 254.78125,362.625 C 267.14059,356.3395 276.27949,343.52635 276.4375,329.375 C 277.27835,315.92755 275.83287,302.45653 276.5,289 C 276.5,268.40625 276.5,247.8125 276.5,227.21875 C 273.62059,224.58726 272.03686,220.14674 268.46875,218.3125 C 268.36498,218.32381 268.25245,218.2864 268.15625,218.34375 z M 247.78125,303.875 C 258.61956,303.53885 266.57361,313.94608 267.96189,323.83614 C 270.44535,337.14117 264.21423,351.99527 251.78125,357.96875 C 241.23513,363.00603 227.62255,359.08893 220.71875,349.6875 C 214.70724,342.41834 213.5409,331.88276 217.70307,323.48059 C 222.89536,312.05647 235.10655,304.30192 247.78125,303.875 z"
           style="opacity:0.09090899;fill:#4d4d4d;fill-opacity:1;fill-rule:evenodd;stroke:none;stroke-width:2;stroke-linecap:butt;stroke-linejoin:miter;stroke-miterlimit:4;stroke-opacity:1" />
        <path
           id="path11168"
           d="M 268.15625,217.84375 C 264.66544,219.78799 268.28255,225.61612 267,228.78125 C 266.60945,244.47093 267.7256,260.27913 266.5625,275.90625 C 263.47302,288.88235 250.21241,295.22525 238.57903,299.01464 C 226.35721,303.5109 213.67692,311.80796 211.34375,325.53125 C 206.54029,342.65705 216.61152,364.1378 235.28125,366.5625 C 257.44609,369.49235 277.93965,348.94791 277.09927,327.00232 C 276.8206,293.69047 277.06475,260.35861 277,227.03125 C 273.85377,224.47594 272.25319,218.78003 268.15625,217.84375 z M 247.78125,304.375 C 260.68939,304.18663 268.57572,318.28458 267.9375,329.9375 C 268.62065,345.9888 254.12882,362.77606 237.21875,359.28125 C 221.4673,356.8676 210.47174,338.08599 218.21875,323.5625 C 223.4187,312.26991 235.40276,304.81778 247.78125,304.375 z"
           style="opacity:0.09090899;fill:#4d4d4d;fill-opacity:1;fill-rule:evenodd;stroke:none;stroke-width:2;stroke-linecap:butt;stroke-linejoin:miter;stroke-miterlimit:4;stroke-opacity:1" />
        <path
           id="path11173"
           d="M 268,217.34375 C 264.06461,219.24852 267.72871,225.35515 266.5,228.65625 C 266.10694,244.33664 267.22879,260.25966 266.0625,275.8125 C 263.01056,288.31188 250.51498,294.59493 239.28125,298.15625 C 227.00174,302.7404 213.73761,310.68922 211.09375,324.59375 C 205.84101,341.84932 215.46073,363.79714 234.28125,366.875 C 256.47201,370.68126 278.02065,350.16847 277.53125,328.03125 C 277.68185,307.36216 277.23438,286.68262 277.5,266 C 277.19592,252.85722 278.10021,239.21391 277.0625,226.375 C 273.9526,223.75425 272.36185,217.93097 268,217.34375 z M 247.8125,304.875 C 260.79317,304.72522 268.24648,319.13895 267.46875,330.71875 C 267.67183,346.12202 253.60381,362.194 237.3125,358.8125 C 221.94903,356.52016 210.98688,337.79539 218.6875,323.78125 C 223.70169,312.71825 235.68156,305.26221 247.8125,304.875 z"
           style="opacity:0.09090899;fill:#4d4d4d;fill-opacity:1;fill-rule:evenodd;stroke:none;stroke-width:2;stroke-linecap:butt;stroke-linejoin:miter;stroke-miterlimit:4;stroke-opacity:1" />
        <path
           id="path11178"
           d="M 268,216.84375 C 263.40077,218.52563 267.16126,225.21228 266,228.75 C 265.61167,244.3691 266.72187,260.21665 265.5625,275.71875 C 262.49892,288.42237 249.50585,294.3596 238.17278,298.07714 C 226.04473,302.62674 213.16139,310.87171 210.625,324.4375 C 205.24356,341.9607 215.09692,364.23339 234.1875,367.375 C 256.6644,371.25792 278.5167,350.42663 278.03125,328.0625 C 278.20668,307.71628 277.71326,287.35958 278,267 C 278,253.53125 278,240.0625 278,226.59375 C 274.47678,223.88558 272.81225,217.4076 268,216.84375 z M 247.84375,305.375 C 260.55381,305.27095 267.71531,319.42254 266.96875,330.75 C 267.12779,345.84192 253.45561,361.58848 237.40625,358.3125 C 222.28192,356.02009 211.63886,337.76892 219.125,324 C 224.12621,313.09701 235.84068,305.75213 247.84375,305.375 z"
           style="opacity:0.09090899;fill:#4d4d4d;fill-opacity:1;fill-rule:evenodd;stroke:none;stroke-width:2;stroke-linecap:butt;stroke-linejoin:miter;stroke-miterlimit:4;stroke-opacity:1" />
        <path
           id="path11183"
           d="M 267.9375,216.34375 C 262.6043,218.1871 266.76114,225.78106 265.5,229.8125 C 265.04499,245.20333 266.35473,260.75966 264.96875,276.0625 C 261.65478,288.39214 248.98653,293.92888 237.98528,297.60839 C 225.74643,302.23809 212.77365,310.47766 210.125,324.3125 C 204.85732,341.73639 214.24503,363.91196 233.125,367.65625 C 256.15104,372.44425 279.03826,351.12179 278.53125,328.09375 C 278.73518,308.07006 278.19083,288.03671 278.5,268 C 278.5,254.13542 278.5,240.27083 278.5,226.40625 C 274.80759,223.53624 273.08354,216.77165 267.9375,216.34375 z M 247.875,305.875 C 260.44795,305.80763 267.44112,320.15056 266.4375,331.3125 C 266.35455,346.22339 252.50474,361.38166 236.875,357.71875 C 222.392,355.0145 212.32512,337.65784 219.59375,324.1875 C 224.58052,313.39583 236.04513,306.27065 247.875,305.875 z"
           style="opacity:0.09090899;fill:#4d4d4d;fill-opacity:1;fill-rule:evenodd;stroke:none;stroke-width:2;stroke-linecap:butt;stroke-linejoin:miter;stroke-miterlimit:4;stroke-opacity:1" />
      </g>
      <g
         transform="matrix(-1,0,0,1,568.48377,0)"
         id="g11188">
        <path
           style="opacity:0.09090899;fill:#4d4d4d;fill-opacity:1;fill-rule:evenodd;stroke:none;stroke-width:2;stroke-linecap:butt;stroke-linejoin:miter;stroke-miterlimit:4;stroke-opacity:1"
           d="M 270.5,269.8125 C 271.48938,285.4002 257.3568,296.90832 243.56811,300.74215 C 238.64086,302.44074 244.42799,300.90883 246.28125,300.9375 C 260.97949,299.49788 271.60466,314.64187 271.375,328.15625 C 272.37517,336.65523 268.17878,346.79676 263.71875,352.21875 C 275.76977,340.78182 273.80804,322.94993 273.45557,307.84424 C 273.28928,281.33399 273.79393,254.67094 273.34375,228.25 C 269.84252,222.16291 270.3629,227.89591 270.5,232.5625 C 270.5,244.97917 270.5,257.39583 270.5,269.8125 z M 219.09375,352.53125 C 223.7979,360.73928 236.15722,364.65919 243.28125,363.125 C 233.94765,363.78893 224.78416,359.38649 218.9375,352.3125 L 219.09375,352.53125 z"
           id="path11190" />
        <path
           style="opacity:0.09090899;fill:#4d4d4d;fill-opacity:1;fill-rule:evenodd;stroke:none;stroke-width:2;stroke-linecap:butt;stroke-linejoin:miter;stroke-miterlimit:4;stroke-opacity:1"
           d="M 269.96875,223.3125 C 269.68878,240.82688 270.62504,258.48548 269.625,275.9375 C 266.71945,289.80085 253.19439,297.59259 240.625,301.375 C 230.57086,305.17714 218.26873,311.94347 215.5,322.3125 C 222.00305,308.27634 239.08055,298.40785 254.46875,302.40625 C 270.15467,308.37139 274.44147,329.01437 268.34375,343.375 C 263.49783,356.29648 249.09244,365.6843 235.125,361.9375 C 225.82488,359.74211 217.96633,352.6813 214.53125,343.84375 C 217.61478,357.2999 232.19918,366.8406 245.75,363.25 C 262.26429,359.57111 274.91009,343.41472 274.125,326.4375 C 273.7789,293.70821 274.08343,260.96234 274,228.21875 C 272.67836,226.86461 270.7318,223.70486 269.96875,223.3125 z"
           id="path11192" />
        <path
           style="opacity:0.09090899;fill:#4d4d4d;fill-opacity:1;fill-rule:evenodd;stroke:none;stroke-width:2;stroke-linecap:butt;stroke-linejoin:miter;stroke-miterlimit:4;stroke-opacity:1"
           d="M 269.21875,221.34375 C 269.32239,221.31124 269.17582,221.28609 269.21875,221.34375 z M 269.21875,221.34375 C 269.61659,239.14133 269.79905,257.28533 269.21875,275.125 C 266.85818,288.96163 253.42793,296.98535 240.95555,300.71153 C 229.39676,305.04947 216.37218,312.24201 213.96875,325.4375 C 209.24338,340.88523 217.67639,361.10186 234.84375,363.9375 C 255.28994,367.32498 275.06181,348.26592 274.53125,327.84375 C 274.66018,306.88372 274.25007,285.91158 274.5,264.9375 C 274.24776,252.5534 275.00302,239.7468 274.125,227.625 C 272.47857,225.59508 270.92159,223.33694 269.21875,221.34375 z M 247.71875,301.875 C 261.97961,301.54658 271.13505,316.87106 270.4375,329.90625 C 271.13494,347.21678 255.72492,365.0483 237.5625,361.875 C 220.5016,359.7891 207.84895,339.89244 215.375,323.8125 C 220.62518,311.00524 233.92953,302.31336 247.71875,301.875 z"
           id="path11194" />
        <path
           style="opacity:0.09090899;fill:#4d4d4d;fill-opacity:1;fill-rule:evenodd;stroke:none;stroke-width:2;stroke-linecap:butt;stroke-linejoin:miter;stroke-miterlimit:4;stroke-opacity:1"
           d="M 268.6875,220.40625 C 269.18866,238.57376 269.22489,256.88999 268.75,275.0625 C 266.35796,288.88564 252.6581,296.75313 240.25,300.4375 C 228.40122,304.8793 215.52535,312.49385 213.28125,326.03125 C 208.7952,341.9949 218.05361,362.32446 235.59375,364.5625 C 256.59557,367.35927 276.02205,347.56575 275.10085,326.87742 C 274.75879,293.85801 275.18895,260.71947 274.90625,227.75 C 272.82596,225.67407 270.66827,221.42266 268.6875,220.40625 z M 247.75,302.375 C 261.73313,302.09058 270.58134,317.08023 269.9375,329.90625 C 270.62392,346.91811 255.54402,364.44995 237.65625,361.40625 C 220.58018,359.28423 208.17947,339.2505 216.125,323.3125 C 221.51628,311.04975 234.40207,302.79126 247.75,302.375 z"
           id="path11196" />
        <path
           style="opacity:0.09090899;fill:#4d4d4d;fill-opacity:1;fill-rule:evenodd;stroke:none;stroke-width:2;stroke-linecap:butt;stroke-linejoin:miter;stroke-miterlimit:4;stroke-opacity:1"
           d="M 268.34375,219.375 C 268.18435,223.40431 268.76257,227.53677 268.5,231.625 C 268.36344,245.87054 268.75372,260.14704 268.34375,274.375 C 266.50206,286.66735 255.19955,295.06326 243.8798,298.48565 C 233.04538,302.78196 220.75305,307.6263 215.25,318.625 C 209.31359,331.35628 210.84564,348.1926 221.21875,358.09375 C 229.98142,366.81182 244.73228,367.38781 255.09375,361.3125 C 266.59493,355.18997 275.18087,343.03157 275.40304,329.69161 C 276.33489,316.298 274.80878,302.87377 275.5,289.46875 C 275.5,268.85417 275.5,248.23958 275.5,227.625 C 272.97839,225.1472 271.33592,221.31067 268.34375,219.375 z M 247.75,302.875 C 259.09476,302.53651 267.44384,313.22453 268.95948,323.64906 C 271.53886,337.40103 264.97692,352.76322 252.21875,358.875 C 240.89336,364.28961 226.47502,359.77267 219.46875,349.6875 C 213.58722,342.14582 212.56673,331.44296 216.875,322.9375 C 222.21069,311.21811 234.84693,303.27583 247.75,302.875 z"
           id="path11198" />
        <path
           style="opacity:0.09090899;fill:#4d4d4d;fill-opacity:1;fill-rule:evenodd;stroke:none;stroke-width:2;stroke-linecap:butt;stroke-linejoin:miter;stroke-miterlimit:4;stroke-opacity:1"
           d="M 268,269.9375 C 268.90392,283.67912 256.73135,293.92446 244.65385,297.64423 C 232.14744,302.53374 216.91848,308.46793 213.21875,322.8125 C 207.74524,338.19829 213.79689,358.26263 230.09375,364.1875 C 248.8846,371.08564 270.04353,355.99959 274.84375,337.625 C 277.70638,322.9455 275.14921,307.85084 276,293 C 276,271.14583 276,249.29167 276,227.4375 C 272.52074,223.88399 266.21665,212.39524 268,223.625 C 268,239.0625 268,254.5 268,269.9375 z M 247.75,303.375 C 260.35527,303.06357 268.69056,316.04735 268.8125,327.625 C 270.43384,343.70594 257.98681,361.4699 240.8125,360.625 C 224.65195,360.49316 210.71024,343.465 215.71875,327.5625 C 219.50951,313.63715 233.53811,303.81157 247.75,303.375 z"
           id="path11200" />
        <path
           style="opacity:0.09090899;fill:#4d4d4d;fill-opacity:1;fill-rule:evenodd;stroke:none;stroke-width:2;stroke-linecap:butt;stroke-linejoin:miter;stroke-miterlimit:4;stroke-opacity:1"
           d="M 268.15625,218.34375 C 266.03238,219.65913 267.93588,223.14022 267.5,225.1875 C 267.37869,241.50529 267.72803,257.85289 267.35391,274.1535 C 265.61638,285.95911 254.87817,294.02117 244.0016,297.36575 C 232.5865,301.84393 219.48879,306.99673 214.09375,318.8125 C 208.35814,331.6143 209.91992,348.09976 219.96875,358.28125 C 228.78444,367.51073 243.82151,368.63401 254.78125,362.625 C 267.14059,356.3395 276.27949,343.52635 276.4375,329.375 C 277.27835,315.92755 275.83287,302.45653 276.5,289 C 276.5,268.40625 276.5,247.8125 276.5,227.21875 C 273.62059,224.58726 272.03686,220.14674 268.46875,218.3125 C 268.36498,218.32381 268.25245,218.2864 268.15625,218.34375 z M 247.78125,303.875 C 258.61956,303.53885 266.57361,313.94608 267.96189,323.83614 C 270.44535,337.14117 264.21423,351.99527 251.78125,357.96875 C 241.23513,363.00603 227.62255,359.08893 220.71875,349.6875 C 214.70724,342.41834 213.5409,331.88276 217.70307,323.48059 C 222.89536,312.05647 235.10655,304.30192 247.78125,303.875 z"
           id="path11202" />
        <path
           style="opacity:0.09090899;fill:#4d4d4d;fill-opacity:1;fill-rule:evenodd;stroke:none;stroke-width:2;stroke-linecap:butt;stroke-linejoin:miter;stroke-miterlimit:4;stroke-opacity:1"
           d="M 268.15625,217.84375 C 264.66544,219.78799 268.28255,225.61612 267,228.78125 C 266.60945,244.47093 267.7256,260.27913 266.5625,275.90625 C 263.47302,288.88235 250.21241,295.22525 238.57903,299.01464 C 226.35721,303.5109 213.67692,311.80796 211.34375,325.53125 C 206.54029,342.65705 216.61152,364.1378 235.28125,366.5625 C 257.44609,369.49235 277.93965,348.94791 277.09927,327.00232 C 276.8206,293.69047 277.06475,260.35861 277,227.03125 C 273.85377,224.47594 272.25319,218.78003 268.15625,217.84375 z M 247.78125,304.375 C 260.68939,304.18663 268.57572,318.28458 267.9375,329.9375 C 268.62065,345.9888 254.12882,362.77606 237.21875,359.28125 C 221.4673,356.8676 210.47174,338.08599 218.21875,323.5625 C 223.4187,312.26991 235.40276,304.81778 247.78125,304.375 z"
           id="path11204" />
        <path
           style="opacity:0.09090899;fill:#4d4d4d;fill-opacity:1;fill-rule:evenodd;stroke:none;stroke-width:2;stroke-linecap:butt;stroke-linejoin:miter;stroke-miterlimit:4;stroke-opacity:1"
           d="M 268,217.34375 C 264.06461,219.24852 267.72871,225.35515 266.5,228.65625 C 266.10694,244.33664 267.22879,260.25966 266.0625,275.8125 C 263.01056,288.31188 250.51498,294.59493 239.28125,298.15625 C 227.00174,302.7404 213.73761,310.68922 211.09375,324.59375 C 205.84101,341.84932 215.46073,363.79714 234.28125,366.875 C 256.47201,370.68126 278.02065,350.16847 277.53125,328.03125 C 277.68185,307.36216 277.23438,286.68262 277.5,266 C 277.19592,252.85722 278.10021,239.21391 277.0625,226.375 C 273.9526,223.75425 272.36185,217.93097 268,217.34375 z M 247.8125,304.875 C 260.79317,304.72522 268.24648,319.13895 267.46875,330.71875 C 267.67183,346.12202 253.60381,362.194 237.3125,358.8125 C 221.94903,356.52016 210.98688,337.79539 218.6875,323.78125 C 223.70169,312.71825 235.68156,305.26221 247.8125,304.875 z"
           id="path11206" />
        <path
           style="opacity:0.09090899;fill:#4d4d4d;fill-opacity:1;fill-rule:evenodd;stroke:none;stroke-width:2;stroke-linecap:butt;stroke-linejoin:miter;stroke-miterlimit:4;stroke-opacity:1"
           d="M 268,216.84375 C 263.40077,218.52563 267.16126,225.21228 266,228.75 C 265.61167,244.3691 266.72187,260.21665 265.5625,275.71875 C 262.49892,288.42237 249.50585,294.3596 238.17278,298.07714 C 226.04473,302.62674 213.16139,310.87171 210.625,324.4375 C 205.24356,341.9607 215.09692,364.23339 234.1875,367.375 C 256.6644,371.25792 278.5167,350.42663 278.03125,328.0625 C 278.20668,307.71628 277.71326,287.35958 278,267 C 278,253.53125 278,240.0625 278,226.59375 C 274.47678,223.88558 272.81225,217.4076 268,216.84375 z M 247.84375,305.375 C 260.55381,305.27095 267.71531,319.42254 266.96875,330.75 C 267.12779,345.84192 253.45561,361.58848 237.40625,358.3125 C 222.28192,356.02009 211.63886,337.76892 219.125,324 C 224.12621,313.09701 235.84068,305.75213 247.84375,305.375 z"
           id="path11208" />
        <path
           style="opacity:0.09090899;fill:#4d4d4d;fill-opacity:1;fill-rule:evenodd;stroke:none;stroke-width:2;stroke-linecap:butt;stroke-linejoin:miter;stroke-miterlimit:4;stroke-opacity:1"
           d="M 267.9375,216.34375 C 262.6043,218.1871 266.76114,225.78106 265.5,229.8125 C 265.04499,245.20333 266.35473,260.75966 264.96875,276.0625 C 261.65478,288.39214 248.98653,293.92888 237.98528,297.60839 C 225.74643,302.23809 212.77365,310.47766 210.125,324.3125 C 204.85732,341.73639 214.24503,363.91196 233.125,367.65625 C 256.15104,372.44425 279.03826,351.12179 278.53125,328.09375 C 278.73518,308.07006 278.19083,288.03671 278.5,268 C 278.5,254.13542 278.5,240.27083 278.5,226.40625 C 274.80759,223.53624 273.08354,216.77165 267.9375,216.34375 z M 247.875,305.875 C 260.44795,305.80763 267.44112,320.15056 266.4375,331.3125 C 266.35455,346.22339 252.50474,361.38166 236.875,357.71875 C 222.392,355.0145 212.32512,337.65784 219.59375,324.1875 C 224.58052,313.39583 236.04513,306.27065 247.875,305.875 z"
           id="path11210" />
      </g>
      <path
         id="path2258"
         d="M 247.0625,304.4375 C 236.37477,304.70558 224.57399,312.32434 219.3125,321.4375 C 212.2972,333.58836 216.47412,349.14095 228.625,356.15625 C 240.77587,363.17155 256.32846,358.99463 263.34375,346.84375 C 270.35907,334.69288 269.24463,313.85905 257.09375,306.84375 C 254.05604,305.08992 250.62508,304.34814 247.0625,304.4375 z M 247.375,307.4375 C 252.29489,307.38007 257.05084,309.47595 260.03125,313.46875 C 268.34533,325.69585 265.83458,346.08962 252.21875,353.71875 C 239.81276,361.23431 221.90608,353.12517 219.40625,338.84375 C 215.64637,322.96532 231.28806,308.49606 246.375,307.46875 C 246.70384,307.44559 247.04701,307.44133 247.375,307.4375 z"
         style="fill:#003b98;fill-opacity:1;fill-rule:evenodd;stroke:#00183d;stroke-width:1;stroke-linecap:butt;stroke-linejoin:miter;stroke-miterlimit:4;stroke-dasharray:none;stroke-dashoffset:0;stroke-opacity:1" />
      <path
         id="path12365"
         d="M 246.375,305.78125 C 236.22862,306.02831 225.02625,313.03879 220.03125,321.4375 C 215.24442,329.48626 215.94318,339.14137 221,346.34375 C 216.82334,339.18967 216.50192,330.05765 220.9375,322.375 C 225.8749,313.8232 236.93937,306.68909 246.96875,306.4375 C 250.31187,306.35365 253.52438,307.04168 256.375,308.6875 C 259.53442,310.51159 261.90407,313.32147 263.53125,316.6875 C 261.88205,313.01579 259.36665,309.93947 255.90625,308 C 253.02237,306.38364 249.75711,305.69892 246.375,305.78125 z M 260.71875,317.625 C 265.99999,328.95082 262.93055,344.85103 251.28125,351.1875 C 241.84082,356.73939 229.05379,353.02785 223.125,344.5625 C 228.52616,354.1348 242.00236,358.63051 251.8125,352.6875 C 263.62788,346.0672 266.51795,329.19922 260.71875,317.625 z"
         style="fill:#ffffff;fill-opacity:0.19607843;fill-rule:evenodd;stroke:none;stroke-width:0.95517761;stroke-linecap:butt;stroke-linejoin:miter;stroke-miterlimit:4;stroke-dashoffset:0;stroke-opacity:1" />
      <path
         style="fill:#00183d;fill-opacity:1;fill-rule:evenodd;stroke:none;stroke-width:0.95517761;stroke-linecap:butt;stroke-linejoin:miter;stroke-miterlimit:4;stroke-dashoffset:0;stroke-opacity:1"
         d="M 246.96598,306.43592 C 236.93659,306.6875 225.86272,313.83695 220.92532,322.38875 C 214.34216,333.79114 218.26178,348.38573 229.66419,354.96889 C 241.06659,361.55205 255.66117,357.63243 262.24433,346.23002 C 268.82751,334.82763 267.78172,315.27713 256.37932,308.69396 C 253.52871,307.04815 250.3091,306.35207 246.96598,306.43592 z M 247.25923,309.25114 C 251.87606,309.19724 256.33905,311.16401 259.13587,314.91087 C 266.93781,326.38479 264.58173,345.52235 251.8046,352.68153 C 240.1628,359.73415 223.35914,352.12452 221.01329,338.72281 C 217.48503,323.82247 232.16322,310.24447 246.32082,309.28046 C 246.6294,309.25873 246.95144,309.25472 247.25923,309.25114 z"
         id="path11214" />
      <path
         style="fill:#003b98;fill-opacity:1;fill-rule:evenodd;stroke:#00183d;stroke-width:1;stroke-linecap:butt;stroke-linejoin:miter;stroke-miterlimit:4;stroke-dasharray:none;stroke-dashoffset:0;stroke-opacity:1"
         d="M 320.74306,304.4375 C 331.43079,304.70558 343.23157,312.32434 348.49306,321.4375 C 355.50836,333.58836 351.33144,349.14095 339.18056,356.15625 C 327.02969,363.17155 311.4771,358.99463 304.46181,346.84375 C 297.44649,334.69288 298.56093,313.85905 310.71181,306.84375 C 313.74952,305.08992 317.18048,304.34814 320.74306,304.4375 z M 320.43056,307.4375 C 315.51067,307.38007 310.75472,309.47595 307.77431,313.46875 C 299.46023,325.69585 301.97098,346.08962 315.58681,353.71875 C 327.9928,361.23431 345.89948,353.12517 348.39931,338.84375 C 352.15919,322.96532 336.5175,308.49606 321.43056,307.46875 C 321.10172,307.44559 320.75855,307.44133 320.43056,307.4375 z"
         id="path13132" />
      <path
         style="fill:#ffffff;fill-opacity:0.19607843;fill-rule:evenodd;stroke:none;stroke-width:0.95517761;stroke-linecap:butt;stroke-linejoin:miter;stroke-miterlimit:4;stroke-dashoffset:0;stroke-opacity:1"
         d="M 321.43056,305.78125 C 331.57694,306.02831 342.77931,313.03879 347.77431,321.4375 C 352.56114,329.48626 351.86238,339.14137 346.80556,346.34375 C 350.98222,339.18967 351.30364,330.05765 346.86806,322.375 C 341.93066,313.8232 330.86619,306.68909 320.83681,306.4375 C 317.49369,306.35365 314.28118,307.04168 311.43056,308.6875 C 308.27114,310.51159 305.90149,313.32147 304.27431,316.6875 C 305.92351,313.01579 308.43891,309.93947 311.89931,308 C 314.78319,306.38364 318.04845,305.69892 321.43056,305.78125 z M 307.08681,317.625 C 301.80557,328.95082 304.87501,344.85103 316.52431,351.1875 C 325.96474,356.73939 338.75177,353.02785 344.68056,344.5625 C 339.2794,354.1348 325.8032,358.63051 315.99306,352.6875 C 304.17768,346.0672 301.28761,329.19922 307.08681,317.625 z"
         id="path13134" />
      <path
         id="path13136"
         d="M 320.83958,306.43592 C 330.86897,306.6875 341.94284,313.83695 346.88024,322.38875 C 353.4634,333.79114 349.54378,348.38573 338.14137,354.96889 C 326.73897,361.55205 312.14439,357.63243 305.56123,346.23002 C 298.97805,334.82763 300.02384,315.27713 311.42624,308.69396 C 314.27685,307.04815 317.49646,306.35207 320.83958,306.43592 z M 320.54633,309.25114 C 315.9295,309.19724 311.46651,311.16401 308.66969,314.91087 C 300.86775,326.38479 303.22383,345.52235 316.00096,352.68153 C 327.64276,359.73415 344.44642,352.12452 346.79227,338.72281 C 350.32053,323.82247 335.64234,310.24447 321.48474,309.28046 C 321.17616,309.25873 320.85412,309.25472 320.54633,309.25114 z"
         style="fill:#00183d;fill-opacity:1;fill-rule:evenodd;stroke:none;stroke-width:0.95517761;stroke-linecap:butt;stroke-linejoin:miter;stroke-miterlimit:4;stroke-dashoffset:0;stroke-opacity:1" />
    </g>
  </g>
</svg>
