<?xml version="1.0" encoding="UTF-8" standalone="no"?>
<!DOCTYPE svg PUBLIC "-//W3C//DTD SVG 20010904//EN"
"http://www.w3.org/TR/2001/REC-SVG-20010904/DTD/svg10.dtd">
<!-- Created with Sodipodi ("http://www.sodipodi.com/") -->
<svg
   xmlns="http://www.w3.org/2000/svg"
   xmlns:odm="http://product.corel.com/CGS/11/cddns/"
   xml:space="preserve"
   width="312pt"
   height="417pt"
   style="shape-rendering:geometricPrecision; text-rendering:geometricPrecision; image-rendering:optimizeQuality; fill-rule:evenodd"
   viewBox="0 0 8268 11692"
   xmlns:sodipodi="http://sodipodi.sourceforge.net/DTD/sodipodi-0.dtd"
   xmlns:xlink="http://www.w3.org/1999/xlink"
   id="svg728"
   sodipodi:version="0.34"
   sodipodi:docname="D:\Dokumenty\Wikipedie\images\svg\ASL\Sign language_S.svg"><sodipodi:namedview
   id="base" /><defs
   id="defs729"><style
   type="text/css"
   id="style730"><![CDATA[
    .fil0 {fill:#1F1A17}
   ]]></style></defs><g
   id="Layer 1"
   transform="matrix(2.018976,0,0,2.018683,-3626.944,-5219.409)"><path
   class="fil0"
   d="M3941 2697c37,0 97,-7 181,-21 83,-14 143,-21 180,-21 102,0 188,14 257,42 70,28 123,88 160,181 83,-74 204,-112 361,-112 93,0 183,12 271,35 88,23 150,40 187,49 176,268 264,569 264,903 0,166 -18,319 -55,458 74,268 125,461 153,576 27,116 41,257 41,424 -74,213 -217,447 -430,701 -213,255 -412,493 -598,716 -92,37 -157,106 -194,208 -37,185 -74,366 -111,542l28 430c-139,195 -315,327 -528,396 -213,69 -463,104 -750,104 -176,0 -384,-55 -625,-167 -241,-111 -384,-171 -431,-180l-55 -70c0,-83 0,-168 0,-256 0,-88 4,-179 14,-271 0,-195 -12,-345 -35,-452 -23,-106 -86,-215 -188,-326 -83,-232 -152,-472 -208,-722 -55,-250 -83,-500 -83,-750 0,-343 65,-658 194,-945 111,-129 222,-264 334,-403 148,-148 305,-222 472,-222 18,-92 67,-178 146,-257 78,-78 148,-136 208,-173 60,-37 132,-56 215,-56 84,0 144,0 181,0 120,0 194,-51 222,-153 28,-101 102,-171 222,-208zm0 83c-83,37 -136,105 -159,202 -24,97 -35,173 -35,229 65,509 129,1014 194,1514l56 -42 55 125c37,9 102,14 195,14 65,0 116,-18 153,-56 9,-64 -5,-106 -42,-125 -37,-18 -88,-27 -153,-27 -92,0 -153,-14 -180,-42 55,-56 97,-97 125,-125 194,-37 310,9 347,139l55 -306c-37,-74 -97,-111 -180,-111 -130,28 -218,42 -264,42 -46,0 -83,-28 -111,-83l291 0c-120,-176 -215,-320 -284,-431 -70,-111 -104,-185 -104,-222 0,-65 20,-134 62,-209 42,-74 86,-143 132,-208 74,-74 185,-111 333,-111 56,0 98,5 125,14l0 -83c-27,-47 -64,-79 -111,-98 -46,-18 -97,-27 -153,-27 -37,0 -97,4 -180,13 -83,10 -139,14 -167,14zm1000 70c-55,9 -97,41 -125,97 -28,56 -41,116 -41,181 92,92 238,182 437,270 199,88 331,165 396,230 0,-93 -2,-186 -7,-278 -5,-93 -26,-188 -63,-285 -37,-97 -88,-157 -152,-180 -65,-24 -158,-35 -278,-35l-167 0zm-541 222c-75,19 -128,51 -160,97 -33,47 -63,116 -90,209 166,148 361,222 583,222 28,-19 51,-46 69,-84 -9,-9 -14,-18 -14,-27 -37,9 -69,18 -97,27 37,-55 74,-111 111,-166 -111,-130 -189,-211 -236,-243 -46,-33 -102,-44 -166,-35zm-1070 56c-130,37 -236,85 -319,145 -84,61 -130,142 -139,243 148,204 247,433 298,688 51,255 77,549 77,882l83 83c46,-92 97,-190 153,-291 55,-28 111,-42 167,-42 55,0 106,14 152,42 0,-343 -11,-639 -34,-889 -24,-250 -58,-452 -105,-604 -46,-153 -99,-232 -159,-237 -60,-4 -118,-11 -174,-20zm695 291c0,139 57,269 173,389 116,121 213,213 292,278 79,65 183,102 312,111 130,9 218,42 264,97 -28,19 -74,28 -139,28 -74,0 -125,9 -152,28 -19,37 -7,81 34,132 42,51 86,99 132,146 -28,37 -62,41 -104,13 -42,-27 -76,-27 -104,0 0,130 21,248 62,355 42,106 109,215 202,326 -102,0 -181,-60 -236,-181 -56,-120 -98,-222 -125,-305 -195,0 -373,83 -535,250 -162,167 -317,329 -465,486 -47,83 -70,204 -70,361 0,74 5,146 14,215 9,70 19,137 28,202 -74,-46 -144,-97 -208,-153 -28,-83 -42,-190 -42,-319 0,-102 18,-176 55,-223 0,84 14,144 42,181 0,-83 14,-162 42,-236 28,-74 55,-148 83,-222l-333 -84c-19,37 -58,65 -118,84 -60,18 -100,37 -118,55 -158,28 -283,-32 -375,-180 -84,-195 -144,-329 -181,-403 -46,-19 -130,-28 -250,-28 -148,9 -255,14 -319,14 -10,55 -14,130 -14,222 0,158 9,296 28,417 18,120 46,257 83,410 37,152 86,324 146,513 60,190 134,318 222,382 88,65 174,107 257,125 83,19 162,28 236,28 65,0 139,-7 222,-21 84,-14 144,-25 181,-34 37,0 85,-19 146,-56 60,-37 104,-46 132,-28 -37,74 -58,167 -63,278 -5,111 -2,176 7,194 19,-111 35,-206 49,-284 14,-79 53,-146 118,-202 92,-27 148,-18 166,28l-83 778c0,222 37,393 111,514 74,9 153,-16 236,-77 84,-60 144,-104 181,-132 -37,-83 -56,-189 -56,-319 0,-65 9,-167 28,-306 19,-138 28,-240 28,-305 -111,-19 -204,-30 -278,-35 -74,-4 -120,-44 -139,-118 37,-18 104,-14 202,14 97,28 168,28 215,0 -148,0 -259,-12 -334,-35 -74,-23 -148,-85 -222,-187 -9,-37 -14,-79 -14,-125 74,46 148,95 223,146 74,51 185,76 333,76 92,0 194,-21 305,-62 112,-42 218,-91 320,-146 46,-74 213,-276 500,-604 287,-329 449,-605 486,-827 -9,-28 -51,-204 -125,-528 -74,-324 -139,-555 -194,-694l-125 125c-37,28 -81,55 -132,83 -51,28 -95,42 -132,42 -37,0 -79,-28 -125,-83 55,-84 104,-144 146,-181 41,-37 85,-60 131,-69l-208 250c139,-65 236,-118 292,-160 55,-42 83,-109 83,-202l-486 -236c-9,10 -35,54 -76,132 -42,79 -91,128 -146,146 -121,28 -243,14 -368,-42 -125,-55 -229,-129 -313,-222 -18,-120 14,-208 97,-264 -46,10 -92,98 -138,264zm-1209 222c-65,-18 -132,-9 -201,28 -70,37 -137,74 -202,111 -18,65 -37,130 -55,195l-42 -70c-74,47 -129,91 -166,132 -37,42 -88,118 -153,229 55,47 129,79 222,98 -37,-56 -69,-116 -97,-181 176,56 296,176 361,361 65,185 125,357 180,514 56,158 130,236 223,236l14 -139c9,-27 30,-71 62,-132 32,-60 86,-90 160,-90 0,-139 -7,-292 -21,-458 -14,-167 -58,-347 -132,-542l-153 -292zm-875 737l-55 361 527 14c10,-121 -41,-209 -152,-264 -111,-37 -218,-74 -320,-111zm2347 152l-97 -14 97 14zm-750 403c56,37 107,37 153,0 -18,0 -46,-9 -83,-28 -37,-18 -60,-9 -70,28zm403 28l0 97 84 -42c-28,-18 -56,-37 -84,-55zm-403 55c-46,-9 -74,12 -83,63 -9,51 -18,81 -28,90 37,19 102,28 195,28 55,0 111,-9 166,-28l0 -55c0,-65 -32,-98 -97,-98 -55,0 -106,0 -153,0zm-513 84l-14 153c83,18 125,-28 125,-139l-111 -14zm444 944l-14 -83 14 139 0 -56zm1028 959l55 -153 -55 153zm-1139 -70l-139 56 139 -56zm958 875c0,-129 12,-301 35,-514 23,-213 35,-333 35,-361 -56,195 -84,408 -84,639 0,111 5,190 14,236zm-680 -847c-84,278 -125,565 -125,861 0,56 0,111 0,167 18,74 27,129 27,166 56,-9 116,-23 181,-41 -65,-111 -97,-269 -97,-473 0,-83 0,-168 0,-256 0,-88 4,-179 14,-271l0 -153zm-1292 28c46,305 69,602 69,889 93,27 244,83 452,166 208,84 373,125 493,125l0 -1125c-111,56 -206,88 -285,97 -79,10 -243,28 -493,56 -65,0 -102,-39 -111,-118 -9,-79 -51,-109 -125,-90zm847 14l-69 -14 69 14zm1278 263l-42 403 42 -403zm833 -3513l70 -70 -70 70zm-1902 777l319 14c-46,56 -111,84 -194,84 -84,0 -125,-33 -125,-98zm2111 -625c0,56 -42,111 -125,167 -84,56 -130,88 -139,97 -9,-9 -37,-14 -84,-14 75,-18 144,-48 209,-90 65,-42 111,-95 139,-160zm-2764 834l347 -56c-28,28 -81,46 -160,56 -78,9 -141,9 -187,0z"
   id="path732" /></g></svg>
